<?xml version="1.0" encoding="UTF-8"?>
<!DOCTYPE svg PUBLIC "-//W3C//DTD SVG 1.1//EN" "http://www.w3.org/Graphics/SVG/1.1/DTD/svg11.dtd">
<!-- Creator: CorelDRAW 2020 (64-Bit) -->
<svg xmlns="http://www.w3.org/2000/svg" xml:space="preserve" width="200.161mm" height="75.6425mm" version="1.1" style="shape-rendering:geometricPrecision; text-rendering:geometricPrecision; image-rendering:optimizeQuality; fill-rule:evenodd; clip-rule:evenodd"
viewBox="0 0 18923.06 7151.17"
 xmlns:xlink="http://www.w3.org/1999/xlink"
 xmlns:xodm="http://www.corel.com/coreldraw/odm/2003">
 <defs>
  <style type="text/css">
   <![CDATA[
    .fil1 {fill:#2B2A29}
    .fil2 {fill:#FFED00}
    .fil0 {fill:black}
    .fil3 {fill:#2B2A29;fill-rule:nonzero}
   ]]>
  </style>
 </defs>
 <g id="Layer_x0020_1">
  <metadata id="CorelCorpID_0Corel-Layer"/>
  <g id="_2291055429472">
   <g>
    <path class="fil0" d="M18467.05 907.53l0 0c248.78,0 456.01,-206.22 456.01,-453.68 0,-254.43 -207.23,-453.84 -456.01,-453.84l0 0 0 48.16 0 0c227.95,0 407.67,178.78 407.67,405.69 0,219.92 -179.72,405.55 -407.67,405.55l0 0 0 48.13 0 0zm-456.06 -453.68c0,247.47 207.4,453.68 456.06,453.68l0 -48.13c-227.89,0 -407.66,-185.64 -407.66,-405.55 0,-226.9 179.78,-405.69 407.66,-405.69l0 -48.16c-248.66,0 -456.06,199.41 -456.06,453.84z"/>
   </g>
   <g>
    <path class="fil1" d="M18473.93 199.41l34.68 0c82.89,0 172.67,27.53 172.67,137.6 0,82.39 -41.44,109.86 -76,130.54 27.61,6.85 62.17,20.68 62.17,96.16l6.84 96.33c0,27.56 0,34.44 27.78,48.17l0 13.68 -89.94 0c-6.84,-34.29 -13.61,-110 -13.61,-130.56 0,-41.24 -7,-96.29 -89.89,-96.29l-34.68 0 0 -54.94 27.91 0c48.34,0 103.44,-13.8 103.44,-96.33 0,-75.57 -55.1,-82.54 -89.89,-82.54l-41.46 0 0 -61.82 0 0zm-137.98 522.47l-69.34 0 0 -522.47 207.32 0 0 61.82 -137.98 0 0 178.87 137.98 0 0 54.94 -137.98 0 0 226.85z"/>
   </g>
  </g>
  <g>
   <path class="fil2" d="M725.32 283.14l2100.19 0 2100.29 0 2100.2 0 2093.21 0 2100.29 -6.73 2100.21 0 2100.22 0 2100.24 0c0,0 0,20.59 0,61.74 0,34.46 0,89.49 0,158.21 0,68.8 0,144.3 0,233.77 0,82.52 0,178.73 0,275.05 0,103.06 0,199.33 0,302.45 0,96.22 0,192.41 0,288.67 0,89.44 0,178.83 0,254.41 0,75.66 0,144.32 0,192.49l0 0 0 0 0 0 0 0 0 0c0,6.86 0,6.86 0,6.86l0 0 0 0 0 0 0 0 0 0 0 0 0 0 0 6.84 0 0c7,0 7,0 7,0 0,7 6.77,20.71 13.78,41.35 6.76,13.75 20.54,34.41 34.55,54.87 13.76,20.73 27.43,41.35 48.32,68.86 13.84,27.49 34.46,55.05 55.23,82.43 20.6,27.58 41.56,54.98 62.1,82.54 27.79,34.39 48.45,61.93 75.99,89.46 27.75,34.31 48.34,61.85 76.07,96.16 27.61,27.54 48.39,55.07 75.99,82.5l7.01 13.72 13.72 6.95 6.88 6.89 6.9 13.72 6.87 6.84 7.01 6.87 6.88 6.9 6.84 13.76 -6.84 6.89 -6.88 6.87 -7.01 6.84 -13.77 6.86 -6.88 13.72 -6.88 6.93 -6.84 6.88 -7.01 6.83c-27.61,27.49 -55.38,55.05 -82.76,75.59 -20.96,27.56 -48.63,55.09 -76.1,82.55 -20.73,20.57 -48.34,48.1 -69.18,75.66 -20.54,20.59 -41.5,48.13 -62.1,68.71 -20.77,27.51 -41.39,48.21 -55.23,68.7 -20.89,20.68 -34.55,41.33 -48.32,61.96 -14.01,20.56 -20.8,34.39 -27.79,48.1 -13.77,20.65 -20.54,27.48 -20.54,41.19l0 0 0 6.91 0 0c0,0 0,0 -7,0l0 6.9 0 0 0 0 0 0c0,13.78 0,54.98 0,116.9 0,54.91 0,130.59 0,220.08 0,89.25 0,192.36 0,302.43 0,103.04 0,219.94 0,330.02 0,109.99 0,219.95 0,329.92 0,103.09 0,199.41 0,281.94 0,82.44 0,151.23 0,199.35 0,48.17 0,68.71 0,68.71l-2100.24 0 -2100.22 0 -2100.21 0 -2100.29 0 -2093.21 0 -2100.2 0 -2100.29 0 -2100.19 0c0,0 0,-20.54 0,-68.71 0,-48.11 0,-116.91 0,-199.35 0,-82.53 0,-178.85 0,-281.94 0,-109.98 0,-219.94 0,-329.92 0,-110.08 0,-226.98 0,-330.02 0,-110.07 0,-213.18 0,-302.43 0,-89.49 0,-165.17 0,-220.08 0,-61.91 0,-103.11 0,-116.9l0 0 0 0 0 0 0 -6.9 0 0 0 0 0 -6.91 0 0c-6.91,-13.71 -13.71,-20.54 -20.69,-41.19 -6.91,-13.71 -20.78,-27.54 -34.53,-48.1 -13.77,-20.63 -27.67,-41.29 -41.55,-61.96 -20.56,-20.5 -34.51,-41.19 -55.14,-68.7 -20.78,-20.58 -41.54,-48.12 -69.08,-68.71 -20.85,-27.56 -41.43,-55.09 -69.2,-75.66 -20.7,-27.46 -48.32,-54.99 -75.89,-82.55 -20.78,-20.54 -48.31,-48.1 -76.11,-75.59l-6.86 -6.83 -6.87 -6.88 -13.79 -6.93 -6.91 -13.72 -6.92 -6.86 -6.95 -6.84 -13.86 -6.87 -6.84 -6.89 6.84 -13.76 13.86 -6.9 6.95 -6.87 6.92 -6.84 6.91 -13.72 6.84 -6.89 6.96 -6.95 6.87 -13.72c27.69,-27.44 55.21,-54.97 82.98,-82.5 20.64,-34.31 48.37,-61.85 75.89,-96.16 20.84,-27.53 48.36,-55.07 69.2,-89.46 20.69,-27.56 48.3,-54.97 69.08,-82.54 20.63,-27.38 34.57,-54.94 55.14,-82.43 20.81,-27.51 34.69,-48.13 48.43,-68.86 13.78,-20.46 20.73,-41.12 34.63,-54.87 6.8,-20.64 13.71,-34.36 13.71,-41.35l0 0 0 0 0 -6.84 0 0 0 0 0 0 0 0 0 0 0 0 0 0c0,0 0,0 0,-6.86l0 0 0 0 0 0 0 0 0 0c0,-48.17 0,-116.83 0,-192.49 0,-75.58 0,-164.97 0,-254.41 0,-89.29 0,-192.44 0,-288.67 0,-96.28 0,-199.39 0,-295.63 0,-96.19 0,-192.46 0,-281.87 0,-82.54 0,-158.19 0,-226.94 0,-68.76 0,-123.65 0,-158.09 0,-41.24 0,-61.96 0,-61.96l0 0 0 0 0 0 0 0 0 0 0 0 0 0z"/>
   <g>
    <path class="fil1" d="M17520.18 125.07l-138.23 0 0 1980.03 0 0c6.94,20.66 13.77,34.36 20.7,61.89 13.85,20.62 27.62,41.16 41.39,68.72 20.78,27.56 34.68,54.98 55.33,82.49 20.8,27.54 41.58,54.98 62.12,82.54 20.77,34.37 48.45,61.85 69.23,89.25 20.54,27.58 48.33,55.1 68.93,82.58 20.96,27.54 41.5,55.07 62.35,82.5 20.71,20.67 41.32,48.11 62.16,68.81 -20.84,13.73 -34.55,27.44 -55.21,48.03 -20.89,20.64 -41.58,41.29 -62.35,68.89 -20.78,20.48 -41.32,48.12 -68.94,68.62 -20.84,27.53 -41.5,55.02 -69.11,75.7 -20.85,27.43 -41.39,55.07 -62.24,82.39 -20.71,20.78 -41.5,48.15 -55.27,68.88 -13.84,27.38 -34.55,48.05 -41.46,68.71 -13.88,27.46 -20.71,48.16 -27.65,61.77l0 0c0,0 0,0 0,6.96l0 0 0 0 0 2062.37 297.11 0c0,0 0,-34.29 0,-82.36 0,-55.02 0,-130.6 0,-220.09 0,-96.26 0,-199.33 0,-316.22 0,-109.84 0,-233.72 0,-357.56 0,-116.81 0,-240.51 0,-357.33 0,-116.94 0,-220.07 0,-316.27 0,-96.28 0,-171.87 0,-233.79 0,-54.96 0,-89.4 0,-96.22 0,-6.95 6.77,-13.75 13.78,-27.53 6.82,-6.9 13.76,-20.57 27.78,-34.36 6.76,-13.75 20.54,-34.36 34.39,-48.19 13.94,-13.73 27.71,-34.44 48.32,-54.9 13.82,-20.68 34.49,-41.34 55.4,-61.95 20.66,-20.58 41.32,-48.14 62.09,-68.73 20.78,-27.51 48.39,-48.17 69.12,-75.59 27.67,-27.48 55.22,-55 82.89,-82.49l20.67 -20.67 20.77 -20.68 20.78 -20.48 27.61 -20.76 20.73 -20.57 20.61 -20.63 20.78 -20.65 20.78 -20.58 -20.78 -27.56 -20.78 -20.49 -20.61 -20.78 -20.73 -20.58 -13.82 -27.54 -20.78 -20.56 -20.78 -20.58 -20.54 -20.77c-27.84,-27.38 -48.4,-61.77 -76.13,-89.33 -20.66,-27.51 -48.43,-54.95 -68.99,-82.48 -20.78,-27.56 -48.39,-54.97 -69.1,-82.54 -20.79,-20.46 -34.69,-48.14 -55.35,-75.5 -20.59,-20.77 -34.43,-48.08 -48.2,-68.86 -20.89,-20.61 -34.63,-41.17 -41.58,-54.97 -13.76,-20.65 -27.72,-34.31 -34.54,-48.19 -7.01,-13.7 -13.78,-27.32 -20.68,-34.31 0,-6.83 0,-41.15 0,-96.22 0,-55.03 0,-130.68 6.89,-220.04 0,-89.27 0,-192.49 0,-302.48 0,-116.83 0,-233.65 0,-350.66 0,-116.84 0,-233.65 0,-343.64 0,-110.08 0,-206.36 0,-295.65 0,-89.42 0,-158.14 0,-213.12 0,-48.17 0,-75.72 0,-75.72l-20.77 0 -20.62 0 -20.84 0 -20.67 0 -13.9 0 -20.77 0 -20.54 0 -20.78 0 0 0 0 0zm-138.23 1980.03l0 0 0 0 0 0 0 0 0 0 0 6.91 0 0 0 0 0 0 0 0 0 0 0 0 0 0 0 -6.91 0 0 0 0 0 0zm0 -1980.03l-1975.85 0 -2120.95 0 -2120.88 0 -2045.07 0 0 309.37c1015.61,0 2024.29,0 2977.73,0 953.33,0 1844.45,-6.79 2611.38,-6.79 766.73,0 1416.17,0 1879.07,0 463.01,0 746.16,0 780.78,0 0,34.43 0,82.53 0,144.29 0,61.85 0,137.61 0,220.04 0,82.52 0,171.92 0,268.19 0,89.25 0,185.53 0,281.78 0,89.38 0,185.62 0,268.16 0,89.34 0,165.02 0,233.7 0,61.89 0,116.89 0,158.13 0,34.4 0,61.96 0,61.96l0 0 0 0 0 0 0 0 0 0 0 0 0 0 0 0 0 0c0,0 0,0 0,6.88 0,0 0,0 6.95,0 0,6.84 0,6.84 0,6.84 0,6.83 0,6.83 0,6.83 0,6.86 0,6.86 0,6.86 0,6.95 0,6.95 6.84,6.95l0 6.84 0 -1980.03 0 0 0 0zm-8262.74 5211.14l0 0 2141.84 0 2134.56 0 2141.83 0 1844.51 0 0 -2062.37c0,0 0,6.9 -6.84,6.9l0 6.91c0,6.84 0,6.84 0,13.67 0,6.95 0,6.95 0,13.71l-6.95 6.91c0,6.9 0,6.9 0,6.9l0 0c0,0 0,27.53 0,68.8 0,34.29 0,96.24 0,164.94 0,68.74 0,151.22 0,240.59 0,89.44 0,185.7 0,281.91 0,96.24 0,199.39 0,295.63 0,96.14 0,185.63 0,274.97 0,82.47 0,165.01 0,226.84 0,61.97 0,116.92 0,144.51 -34.62,0 -317.77,0 -780.78,0 -462.9,0 -1112.34,0 -1879.07,0 -766.93,0 -1658.04,0 -2611.38,0 -953.45,0 -1962.12,0 -2977.73,0l0 0 0 309.18 0 0 0 0zm8262.74 -3231.12l0 0 -6.84 0 0 -6.84 0 0 0 0 0 0 0 0 0 0 0 0 0 6.84 6.84 0 0 0 0 0zm-8262.74 -1980.03l-75.88 0 -2114.12 6.92 -2113.93 0 -2120.92 0 -2120.95 0 0 20.63 0 13.77 0 20.58 0 20.66 0 20.69 0 20.59 0 13.77 0 20.47c0,0 0,27.71 0,75.81 0,48.06 0,109.88 0,192.41 0,75.65 0,171.92 0,268.18 0,103.04 0,213.05 0,316.18 0,109.99 0,213.11 0,316.31 0,103.09 0,199.36 0,281.87 0,82.49 0,151.22 0,199.33 0,48.22 0,82.55 0,89.38 -6.99,6.99 -6.99,20.61 -20.78,34.31 -6.89,13.88 -13.81,27.54 -27.61,48.19 -13.78,13.79 -27.64,34.36 -41.54,54.97 -13.77,27.55 -34.51,48.09 -48.36,68.86 -20.7,27.36 -41.38,55.04 -62.18,75.5 -20.63,27.58 -41.47,54.98 -62.02,82.54 -27.8,27.53 -48.5,54.97 -69.16,82.48 -27.64,27.56 -48.37,61.95 -75.94,89.33l-20.78 20.77 -20.77 20.58 -20.62 20.56 -20.84 27.54 -20.71 20.58 -20.69 20.78 -20.87 20.49 -20.54 27.56 27.56 20.58 20.83 20.65 20.61 20.63 20.78 20.57 20.66 20.76 20.78 20.48 20.79 20.68 27.55 20.67c27.72,27.49 55.28,55.01 76.06,82.49 27.53,27.43 48.36,48.08 75.88,75.59 20.85,20.59 41.47,48.15 62.27,68.73 20.68,20.61 41.38,41.28 55.23,61.95 13.93,20.46 34.51,41.17 48.4,54.9 13.86,20.58 20.71,34.44 34.49,48.19 6.95,13.78 20.76,27.45 27.69,34.36 6.86,13.78 6.86,20.58 13.85,27.53 0,27.45 0,75.56 0,144.28 0,68.8 0,158.16 0,254.42 0,96.35 0,206.26 0,323.06 0,110.05 0,233.88 0,350.7 0,116.9 0,226.85 0,336.87 0,103.09 0,206.29 0,288.82 0,82.34 0,158.07 0,206.24 0,48.07 0,75.45 0,75.45l2141.55 0 2134.78 0 2141.71 0 2127.76 0 0 -309.18c-1001.65,0 -2017.18,0 -2963.7,0 -953.45,0 -1844.57,0 -2611.45,0 -773.82,0 -1416.23,0 -1879.19,0 -462.82,0 -746.04,0 -787.54,0 0,-27.6 0,-82.54 0,-144.51 0,-61.83 0,-144.37 0,-226.84 0,-89.34 0,-178.83 0,-274.97 0,-96.24 0,-199.39 0,-295.63 0,-96.2 0,-192.46 0,-281.91 0,-89.37 0,-171.85 0,-240.59 0,-68.7 0,-130.65 0,-164.94 0,-41.27 0,-68.8 0,-68.8l0 0 0 -6.9 0 -6.91c0,-6.76 0,-13.71 0,-13.71 0,-6.84 -6.9,-6.84 -6.9,-13.67l0 -6.91c0,-6.9 0,-6.9 0,-6.9 0,-6.96 0,-6.96 0,-6.96 -6.84,-13.61 -13.79,-34.31 -27.69,-55.02 -13.7,-27.41 -27.53,-48.08 -41.44,-68.58 -20.73,-27.61 -41.34,-54.98 -62.15,-75.76 -13.83,-27.32 -41.44,-54.97 -62.17,-82.39 -20.66,-20.68 -41.5,-48.17 -68.99,-75.7 -20.89,-20.5 -41.56,-48.14 -62.24,-68.62 -27.64,-27.61 -48.36,-48.25 -62.25,-68.89 -20.58,-20.58 -41.39,-34.3 -55.25,-48.03 20.74,-27.54 41.47,-48.15 62.24,-75.68 20.76,-20.57 41.39,-48.1 62.15,-75.64 27.58,-27.48 48.36,-61.85 69.12,-89.29 27.61,-27.64 48.35,-61.93 69.01,-89.41 20.85,-27.46 48.39,-55.06 62.28,-89.46 20.64,-27.38 41.39,-54.94 55.22,-75.5 13.81,-27.61 27.52,-55.06 41.45,-75.79 13.87,-20.46 20.71,-41.12 20.71,-54.87l6.9 -6.95 0 0 0 0 0 -6.86 0 0 0 0 0 0 0 -6.83 0 0 0 -6.84 0 0 0 -6.88 0 0 0 -7 0 0 0 -6.84c6.83,0 6.83,0 6.83,0l0 0 0 -6.86 0 0 0 -6.86c0,0 0,0 0,-6.76l0 0c0,-6.99 0,-6.99 0,-13.81 0,-20.73 0,-55.07 0,-103.25 0,-48.02 0,-103.07 -6.83,-165 0,-61.78 0,-137.41 0,-212.99 0,-68.81 0,-151.36 0,-233.85 0,-82.38 0,-164.97 0,-240.52 0,-82.54 0,-165.08 0,-240.63 0,-75.68 0,-144.39 0,-213.24 0,-61.83 0,-123.71 0,-171.86 41.5,0 317.79,0 787.54,0 462.96,0 1105.37,0 1879.19,0 766.88,0 1658.01,0 2604.54,0 953.43,0 1968.96,0 2970.61,0l0 0 0 -309.37z"/>
   </g>
   <g>
    <path class="fil1" d="M17554.71 2703.19c-27.54,-27.44 -48.39,-54.97 -69.1,-89.35 -27.62,-27.47 -48.39,-55.08 -69.11,-82.46 -27.61,-34.39 -48.34,-61.95 -69.12,-89.46 -20.68,-27.44 -34.51,-54.97 -55.23,-82.52 -20.6,-27.41 -34.54,-48.04 -48.32,-75.44 -13.78,-20.69 -27.68,-41.36 -41.58,-61.97 -6.76,-13.84 -13.76,-34.38 -20.66,-48.13 -6.77,-13.8 -13.78,-27.48 -13.78,-34.41l0 -178.74 0 -185.57 0 -178.83 0 -185.58 0 -178.74 0 -185.62 0 -178.72 0 -185.65 0 -6.84 0 -6.92 0 -6.78 0 0 0 -6.93 0 -6.93 0 -6.92 0 -6.88 -1637.38 0 -1630.44 0 -1637.41 0 -1637.27 0 -1506.12 0 0 96.34 0 0c988.07,0 1982.72,0 2915.51,0 925.67,0 1796.1,0 2542.33,0 746.17,0 1368.01,0 1803.12,0 435.34,0 684,0 691,0 0,34.38 0,75.62 0,130.62 0,55.05 0,123.7 0,192.43 0,68.86 0,151.32 0,226.88 0,82.52 0,164.97 0,240.72 0,82.43 0,158.09 0,233.64 0,68.81 0,137.54 0,192.65 0,61.72 0,102.98 0,137.36 0,34.44 0,55 0,61.93l0 0 0 0 0 0c0,13.68 6.76,34.46 13.77,54.94 6.77,20.68 20.78,41.29 34.55,68.78 13.76,20.6 27.55,48.11 48.32,75.65 13.78,27.44 34.44,61.76 55.35,89.38 20.67,27.47 41.44,54.88 61.99,82.46 20.77,27.52 41.55,55 62.23,82.54 13.88,27.53 34.56,48.1 55.27,68.68 13.85,20.78 27.62,41.27 41.39,61.93 -13.76,13.76 -27.54,34.34 -41.39,55 -20.7,20.69 -41.39,48.15 -55.27,68.73 -20.68,27.5 -41.46,54.97 -62.23,82.49 -20.55,27.49 -41.32,55.08 -61.99,89.41 -20.91,27.43 -41.57,54.95 -55.35,82.5 -20.77,27.53 -34.55,54.91 -48.32,75.58 -13.77,27.41 -27.79,48.12 -34.55,68.81 -7.01,20.57 -13.77,41.22 -13.77,55l0 0 0 0 0 0c0,6.76 0,27.52 0,61.85 0,34.4 0,82.48 0,137.44 0,55.02 0,123.76 0,199.39 0,68.68 0,144.47 0,226.94 0,82.48 0,165.02 0,240.51 0,82.6 0,158.17 0,226.97 0,75.48 0,137.41 0,192.5 0,54.98 0,96.14 0,130.68 -7.01,0 -255.66,0 -691,0 -435.12,0 -1056.96,0 -1803.12,0 -746.23,0 -1616.66,0 -2542.33,0 -932.79,0 -1927.44,0 -2915.51,0l0 0 0 96.14 1506.12 0 1637.27 0 1637.41 0 1630.44 0 1637.38 0 0 -6.92 0 0 0 -6.74 0 -6.99 0 -6.83 0 -6.94 0 -6.86 0 -6.88 0 -178.66 0 -185.62 0 -178.79 0 -185.66 0 -185.63 0 -178.74 0 -185.55 0 -178.85c0,-6.76 7.01,-20.54 13.78,-34.29 6.9,-13.86 13.9,-27.47 20.66,-48.17 13.9,-20.71 27.79,-41.17 41.58,-61.85 13.77,-27.44 27.72,-48.14 48.32,-75.65 20.72,-27.56 34.55,-54.88 55.23,-82.52 20.78,-27.43 41.5,-54.91 69.12,-82.43 20.71,-34.41 41.48,-61.97 69.11,-89.31 20.71,-27.61 41.56,-61.96 69.1,-89.47l0 0 6.79 -6.84 0 0 0 -6.87 7.06 0 0 -6.89 0 0 6.95 0 -6.95 -6.84 0 0 0 -6.93 -7.06 0 0 -6.9 0 0 -6.79 -6.87 0 0 0 0zm-8435.5 -2069.4l-117.38 0 -1637.26 0 -1637.42 0 -1630.41 0 -379.97 0 -379.94 0 -373.19 0 -379.86 0 -380.01 0 -372.99 0 -380.09 0 -373.02 0 0 6.88 0 6.92 0 6.93 0 6.93 0 0 0 6.78 0 6.92 0 6.84 0 185.65 0 178.72 0 185.62 -6.84 178.74 0 185.58 0 178.83 0 185.57 0 178.74c0,6.93 0,20.61 -6.95,34.41 -6.88,13.75 -13.86,34.29 -27.73,48.13 -6.83,20.61 -20.59,41.28 -34.49,61.97 -13.83,27.41 -34.51,48.04 -48.34,75.44 -20.81,27.56 -41.35,55.09 -62.2,82.52 -20.69,27.51 -41.41,55.07 -62.08,89.46 -20.77,27.38 -48.47,54.98 -69.08,82.46 -20.81,34.37 -48.35,61.9 -69.19,89.35l0 0 -6.92 6.87 0 0 -6.86 6.9 0 0 0 6.93 -6.88 0 0 6.84 0 0 6.88 0 0 6.89 0 0 6.86 6.87 0 0 6.92 6.84 0 0c20.85,27.51 48.39,61.87 69.19,89.47 20.61,27.34 48.31,54.9 69.08,89.31 20.68,27.52 41.39,55 62.08,82.43 20.85,27.64 41.39,54.97 62.2,82.52 13.83,27.51 34.51,48.21 48.34,75.65 13.9,20.68 27.66,41.13 34.49,61.85 13.87,20.69 20.85,34.31 27.73,48.17 6.95,13.75 6.95,27.53 6.95,34.29l0 178.85 0 185.55 0 178.74 0 185.63 6.84 185.66 0 178.79 0 185.62 0 178.66 0 6.88 0 6.86 0 6.94 0 6.83 0 6.99 0 6.74 0 0 0 6.92 373.02 0 380.09 0 372.99 0 380.01 0 379.86 0 373.19 0 379.94 0 379.97 0 1630.41 0 1637.42 0 1637.26 0 117.38 0 0 -96.14c-987.8,0 -1975.81,0 -2908.37,0 -932.74,0 -1796.31,0 -2542.4,0 -746.17,0 -1367.91,0 -1803.17,0 -435.28,0 -690.85,0 -690.85,0 0,-34.54 0,-75.7 0,-130.68 0,-55.09 0,-117.02 0,-192.5 0,-68.8 0,-144.37 0,-226.97 0,-75.49 0,-158.03 0,-240.51 0,-82.47 0,-158.26 0,-226.94 0,-75.63 0,-144.37 0,-199.39 0,-54.97 0,-103.04 0,-137.44 0,-34.33 0,-55.09 0,-61.85l0 0 0 0 0 0c-6.86,-13.78 -6.86,-34.43 -13.77,-55 -13.9,-20.69 -20.85,-41.41 -34.64,-68.81 -13.76,-20.68 -34.56,-48.05 -48.34,-75.58 -20.67,-27.56 -34.56,-55.08 -55.26,-82.5 -20.74,-34.33 -41.38,-61.91 -62.09,-89.41 -20.81,-27.53 -41.47,-54.99 -62.26,-82.49 -20.71,-20.58 -34.46,-48.04 -55.31,-68.73 -13.7,-20.67 -34.47,-41.24 -48.3,-55 13.83,-20.67 34.6,-41.15 48.3,-61.93 20.85,-20.58 34.59,-41.15 55.31,-68.68 20.79,-27.54 41.46,-55.02 62.26,-82.54 20.71,-27.58 41.35,-54.98 62.09,-82.46 20.69,-27.61 34.59,-61.93 55.26,-89.38 13.77,-27.54 34.58,-55.05 48.34,-75.65 13.79,-27.49 20.74,-48.1 34.64,-68.78 6.91,-20.48 6.91,-41.26 13.77,-54.94l0 0 0 0 0 0c0,-6.93 0,-27.49 0,-61.93 0,-34.37 0,-75.64 0,-137.36 0,-55.11 0,-123.85 0,-192.65 0,-75.56 0,-151.22 0,-233.64 0,-75.74 0,-158.19 0,-240.72 0,-75.57 0,-158.02 0,-226.88 0,-68.73 0,-137.38 0,-192.43 0,-55 0,-96.24 0,-130.62 0,0 255.58,0 690.85,0 435.26,0 1057,0 1803.17,0 746.09,0 1609.66,0 2542.4,0 932.56,0 1920.57,0 2908.37,0l0 -96.34z"/>
   </g>
   <polygon class="fil1" points="7191.77,1149.42 7191.77,1149.42 7191.77,1149.42 7191.77,1149.42 7191.77,1149.42 "/>
   <g>
    <path class="fil1" d="M7191.77 1149.42c-13.78,-27.37 -34.5,-48.1 -55.27,-61.76 -20.69,-20.66 -41.39,-34.47 -62.15,-48.21 -20.69,-6.85 -41.52,-20.54 -62.17,-27.44 -20.74,-6.82 -41.47,-6.82 -62.13,-13.83 -20.85,0 -34.62,0 -55.37,0 -13.81,0 -34.44,0 -41.39,0 -13.86,0 -27.76,0 -34.58,0 -6.84,7.01 -13.78,7.01 -13.78,7.01 -41.48,0 -82.94,6.82 -131.34,13.72 -48.38,6.86 -96.64,20.54 -145.06,34.29 -48.37,6.98 -96.68,20.69 -145.06,41.27 -41.46,13.78 -89.73,27.6 -131.16,48.1 -48.47,13.83 -89.86,34.43 -124.41,48.18 -34.51,13.77 -69.08,27.57 -96.75,41.24 -34.5,13.73 -55.29,27.49 -69.2,34.38 -20.57,6.97 -27.47,13.72 -34.47,13.72 -27.58,13.73 -62.17,27.56 -103.61,48.17 -41.43,20.58 -82.81,41.32 -131.16,68.7 -48.3,27.62 -96.76,55.08 -145.13,82.5 -48.4,34.39 -103.67,61.95 -152.02,96.31 -48.31,34.36 -103.64,61.89 -145.15,96.22 -48.34,27.47 -96.69,61.91 -138.13,89.29 -41.46,27.56 -82.84,55.12 -110.56,75.7 -34.49,27.54 -62.13,41.27 -89.77,61.85 0,-27.47 0,-48.1 0,-75.57 0,-27.55 0,-48.11 0,-75.72 0,-27.41 0,-54.9 0,-82.37 0,-27.51 0,-55.04 0,-82.6 0,-27.44 0,-48.02 -6.92,-75.55 0,-27.56 0,-48.19 0,-68.73 0,-20.61 -6.95,-41.33 -6.95,-61.96 0,-20.54 0,-34.36 -6.8,-48.07 -7.01,-27.56 -7.01,-54.92 -13.81,-75.63 -6.93,-20.64 -13.86,-41.26 -20.83,-61.88 -6.89,-20.53 -13.73,-41.31 -20.69,-55.02 -6.83,-20.56 -13.81,-34.39 -20.66,-48.05 -6.95,-13.77 -13.85,-27.49 -27.71,-41.3 -6.84,-6.91 -13.75,-20.59 -27.61,-27.45 -13.89,-6.9 -20.75,-13.72 -34.5,-20.73 -13.86,-6.84 -27.76,-13.71 -41.46,-13.71 -41.58,-6.84 -76,-13.61 -117.42,-13.61 -41.43,-6.95 -82.98,-6.95 -124.52,0 -20.58,0 -41.41,0 -62.08,6.78l0 309.4c6.86,0 13.78,6.78 20.68,6.78l0 0 0 0 6.97 0c0,0 0,0 0,6.88l0 0c0,0 0,0 6.9,0l0 0 0 0 0 0c0,6.95 0,6.95 0,6.95 0,0 0,0 0,6.84 6.96,0 6.96,0 6.96,0 0,0 0,0 0,6.93l0 0c0,6.84 0,6.84 0,6.84 0,0 0,0 0,6.88l0 0c0,6.83 0,13.7 0,13.7 0,6.95 0,6.95 0,13.77 0,6.97 0,6.97 -6.96,13.72 0,6.86 0,6.86 0,13.82l0 6.81c0,6.91 -6.9,13.77 -6.9,13.77 0,6.95 0,6.95 0,6.95 0,6.9 0,6.9 -6.97,13.66 -6.89,13.72 -13.81,27.49 -20.68,41.3l0 329.98c13.78,-27.48 34.54,-48.18 48.4,-75.6 20.63,-27.56 34.55,-55.03 48.34,-82.49 20.66,-20.63 34.54,-41.3 41.44,-61.97 0,6.99 7,13.75 7,20.67 0,13.84 0,20.68 6.8,27.44 0,6.99 0,13.87 0,20.73 0,13.76 6.9,20.59 6.9,27.49 0,6.86 0,20.57 0,27.45 0,6.86 0,13.78 0,27.56 0,6.84 0,13.63 0,20.54 6.86,13.85 6.86,20.69 6.86,27.57 0,27.45 -6.86,54.97 -6.86,75.54 0,27.58 0,54.98 0,75.68 -6.9,27.48 -6.9,48.22 -6.9,68.72 -6.8,27.64 -6.8,48.13 -13.79,68.84 0,20.52 -6.9,34.31 -6.9,54.97 0,13.7 -6.91,34.31 -6.91,48.11 0,13.75 -6.97,20.62 -6.97,34.29 0,6.95 -6.93,13.84 -6.93,20.77 -6.84,6.79 -20.57,20.56 -34.49,34.35 -13.9,13.77 -27.58,34.37 -48.34,48.1 -6.97,6.84 -20.78,20.63 -27.64,27.45l0 240.72c6.86,-6.96 13.78,-13.79 20.68,-20.77 13.87,-13.67 34.61,-27.38 48.36,-41.19 13.93,-6.84 20.86,-20.58 34.59,-27.58 0,0 0,0 0,7l0 0 0 0 0 0 0 6.86 0 0 0 0 0 6.87c0,6.84 0,20.66 0,34.36 0,20.65 -6.88,34.44 -6.88,55.02 -6.84,13.73 -6.84,34.36 -13.78,54.97 -6.98,13.72 -6.98,34.5 -13.93,54.98 -6.95,20.67 -13.75,41.28 -20.63,61.86 -6.9,20.64 -20.76,34.51 -27.73,55.05 -6.89,13.84 -13.81,27.49 -20.68,41.18l0 96.3 0 0 0 0 0 0 0 0 0 0 0 0 0 0 0 0 0 0 0 192.56c0,0 0,0 6.86,0 48.42,-48.14 96.76,-96.29 138.31,-144.46 41.43,-48.1 75.91,-96.26 103.59,-151.26 34.48,-48.08 62.06,-103.09 89.83,-151.22 20.64,-54.98 48.37,-103.15 62.16,-151.3 20.69,-48.04 34.54,-96.17 48.38,-137.41 6.83,-41.17 20.63,-82.53 27.52,-116.94 6.97,-34.33 13.9,-61.82 13.9,-89.32 6.93,-20.62 6.93,-34.26 6.93,-48.11 48.34,-41.24 96.69,-75.68 138.11,-116.92 48.34,-34.3 89.81,-68.63 138.15,-102.98 48.35,-27.58 89.85,-61.97 138.19,-89.55 41.54,-27.32 89.86,-54.93 131.29,-82.41 41.46,-20.69 82.89,-41.24 124.38,-68.8 41.5,-20.59 82.86,-34.36 117.4,-54.95 34.57,-20.73 69.14,-34.33 103.64,-48.17 27.69,-13.68 62.22,-27.46 82.87,-34.3 -27.62,34.3 -62.06,68.72 -96.62,116.82 -34.63,41.27 -69.08,89.39 -103.71,130.64 -34.55,48.12 -68.99,96.14 -103.59,151.22 -34.66,48.16 -69.11,96.29 -96.72,144.39 -27.65,41.12 -62.09,89.31 -89.86,130.6 -20.74,41.36 -48.39,75.6 -69.08,109.92 -20.69,34.44 -34.59,61.97 -48.34,75.76 -13.76,20.61 -20.69,34.31 -20.69,41.15 -6.94,13.85 -20.81,34.42 -27.65,55.05 -7.01,13.78 -13.81,34.28 -20.69,48.09 -13.94,20.69 -20.81,34.34 -20.81,55.07 -6.87,13.71 -13.75,34.32 -20.63,48.1 0,13.83 -6.94,34.32 -13.88,48.15 0,13.73 -6.94,34.31 -6.94,48.03 0,13.81 -6.89,27.56 -6.89,41.29 0,13.76 0,34.4 0,48.08 0,0 0,6.86 0,13.85 0,6.83 0,13.79 0,13.79 0,6.78 0,13.7 0,20.5 0,6.86 6.89,6.86 6.89,13.81 0,6.88 0,13.72 0,20.54 0,0 0,6.92 6.94,13.86 0,6.81 0,6.81 0,13.63 0,6.99 6.94,13.85 6.94,13.85 6.94,20.63 6.94,34.29 13.82,41.24 6.87,13.83 13.75,27.43 20.62,41.15 7.01,6.98 13.94,20.78 20.82,27.56 6.8,6.88 13.81,13.79 20.66,20.59 6.93,6.92 13.87,13.78 20.81,20.73 6.94,0 13.83,6.88 20.69,6.88 0,6.78 6.84,6.78 6.84,13.73 6.91,0 6.91,0 6.91,0 34.59,20.61 76.13,27.44 110.57,34.39 41.41,6.8 76.01,6.8 117.5,0 34.49,-6.95 68.96,-13.78 103.68,-27.62 34.51,-6.77 68.97,-27.38 103.62,-41.19 34.46,-20.63 62.17,-34.29 89.74,-55.07 27.57,-20.56 55.34,-41.15 82.86,-61.76 27.69,-20.63 48.39,-41.3 62.17,-55.05 20.85,-20.58 41.44,-34.41 55.33,-48.07l0 0 0 -6.92 6.95 0 0 -6.78 6.89 0 0 0 6.85 -6.97 0 0c13.77,-13.81 27.64,-20.68 34.59,-34.36 13.75,-6.8 20.72,-13.73 27.57,-27.56 6.9,-6.84 6.9,-13.62 13.9,-20.57 0,-6.92 6.88,-13.75 6.88,-20.63 0,-6.93 0,-13.78 0,-20.65 0,-6.86 0,-6.86 0,-13.71 0,-6.87 -6.88,-6.87 -6.88,-13.76 0,0 0,-6.84 -7,-6.84 0,-6.93 -6.9,-6.93 -6.9,-13.83 -6.84,0 -13.82,-6.87 -20.66,-6.87 -6.91,-6.84 -6.91,-6.84 -13.86,-6.84 -6.92,0 -13.87,0 -20.67,0 -6.98,0 -13.83,0 -20.72,0 -6.95,0 -13.9,0 -20.85,0 -6.97,6.84 -13.76,6.84 -20.59,13.71 -6.95,0 -13.85,6.9 -20.85,6.9 -20.67,20.66 -41.36,34.37 -62.17,48.1 -20.65,13.78 -41.44,27.49 -62.13,41.36 -20.73,13.62 -34.55,20.54 -55.29,34.38 -20.72,13.65 -34.55,20.48 -55.18,34.33 -13.9,6.83 -27.73,13.79 -41.54,27.49 -13.75,6.8 -27.58,13.66 -34.55,20.61 -6.92,0 -13.79,6.88 -20.67,6.88 -6.86,6.84 -6.86,6.84 -6.86,6.84 -6.91,0 -6.91,0 -13.9,6.83 0,0 -6.93,0 -13.91,0l-6.92 0c-6.78,6.92 -6.78,6.92 -13.62,6.92 -6.99,0 -6.99,0 -13.94,0 0,0 -6.91,0 -6.91,-6.92 -6.97,0 -6.97,0 -13.79,0 0,0 0,-6.83 -6.92,-6.83 0,-6.84 -6.83,-13.72 -6.83,-20.67 -6.95,-6.86 -6.95,-20.58 -6.95,-34.33 0,-6.83 0,-20.68 0,-34.36 6.95,-13.73 6.95,-27.56 6.95,-41.18 6.83,-13.87 6.83,-34.51 13.75,-48.22 6.83,-13.71 6.83,-27.47 13.79,-48.14 6.91,-13.71 6.91,-27.43 13.86,-41.27 6.99,-13.72 13.83,-27.44 20.61,-41.15 34.72,-103.16 76.09,-199.36 124.45,-295.65 55.31,-96.29 110.62,-185.62 172.69,-268.09 62.2,-82.46 124.37,-165.08 193.51,-233.68 62.11,-75.78 131.21,-144.47 200.39,-206.32 62.08,-61.92 131.1,-116.89 186.46,-165.07 62.17,-54.97 117.5,-96.22 165.87,-130.58 55.26,-34.44 96.69,-61.89 124.27,-82.54 34.62,-20.65 62.15,-34.35 69.1,-41.19 6.91,0 13.84,-6.98 13.84,-6.98 6.95,0 13.78,-6.8 13.78,-6.8 6.83,0 6.83,0 13.77,0 0,0 6.95,0 13.81,-6.92l7 0c6.95,0 6.95,6.92 13.78,6.92 0,0 0,0 6.97,0 0,0 6.83,0 6.83,6.8l6.93 0c0,6.98 6.88,6.98 6.88,6.98 0,6.84 0,6.84 6.97,6.84 0,6.95 0,6.95 0,13.7 0,0 0,0 0,6.92l6.95 6.95c0,6.78 0,6.78 0,13.69l0 6.85c-6.95,6.89 -6.95,13.86 -6.95,20.61 0,6.95 0,13.73 6.95,20.61 0,6.95 0,13.79 0,13.79 0,6.93 6.84,13.76 6.84,20.65 0,0 6.93,6.83 6.93,13.7 6.84,0 6.84,6.95 13.76,13.77 6.94,0 6.94,6.97 13.93,6.97 6.91,6.75 6.91,6.75 13.77,6.75 6.88,6.86 20.69,6.86 27.61,6.86 6.88,6.96 20.74,6.96 27.65,6.96 6.9,0 20.65,0 27.58,-6.96 13.9,0 20.8,0 34.51,0 6.92,-6.86 20.85,-6.86 27.77,-13.61 13.71,-6.97 20.62,-6.97 27.56,-13.79 13.88,-6.95 20.77,-13.82 27.67,-20.65 6.86,-6.88 13.81,-13.72 20.61,-20.65 6.99,-6.84 6.99,-6.84 6.99,-13.79 6.95,0 6.95,-6.88 6.95,-6.88 6.87,-6.78 6.87,-6.78 6.87,-13.73l6.99 -6.75c0,-6.97 0,-6.97 0,-13.86l6.91 -6.85c0,-6.91 0,-6.91 0,-13.69 0,-6.95 0,-6.95 0,-13.87l0 -6.75c0,-6.95 0,-6.95 0,-6.95 0,-6.84 0,-13.82 -6.91,-13.82l0 -6.8c0,-6.92 0,-6.92 -6.99,-13.75l0 -6.79c0,-6.96 -6.87,-6.96 -6.87,-13.81l-6.95 -6.97 0 0zm-2811.79 -171.8c-20.68,0 -41.52,0 -62.09,6.84 -41.47,0 -76.11,13.71 -117.47,20.72 -41.46,6.82 -76.09,13.72 -110.65,27.41 -41.41,6.85 -69.03,20.6 -103.59,27.58 -27.58,13.72 -55.33,20.5 -75.88,27.49 -20.85,13.66 -41.56,20.58 -55.33,27.49 -27.77,13.73 -48.36,34.27 -69.15,48.09 -20.6,20.57 -34.53,41.27 -55.27,61.81 -13.78,20.65 -27.53,41.3 -41.43,61.97 -13.9,20.61 -20.69,48.1 -34.55,68.75 -6.86,20.54 -13.79,48.08 -13.79,68.8 -6.99,27.45 -6.99,48.06 -6.99,75.47 0,20.75 0,48.11 6.99,68.88 6.93,27.38 13.79,48.14 27.65,68.72 6.8,20.57 20.69,41.24 27.61,54.98 13.86,13.71 34.51,27.49 48.37,41.27 13.86,13.63 34.44,20.54 48.35,34.39 20.78,6.84 34.44,13.72 55.22,20.54 20.76,6.86 34.51,13.78 55.33,13.78 20.69,6.84 34.51,6.84 55.29,6.84 13.78,0 27.58,0 41.35,0 13.9,0 27.77,0 41.47,0 6.93,0 20.81,-6.84 27.73,-6.84 13.73,-6.92 20.61,-13.78 27.59,-13.78 13.83,-6.83 20.8,-13.7 27.58,-20.54 7.01,0 20.73,-7.01 27.73,-13.85 6.91,-6.91 13.83,-13.71 20.66,-20.54 6.94,-6.88 13.75,-20.69 13.75,-27.56 6.99,-6.88 13.96,-13.71 20.82,-20.59 0,-13.76 6.98,-20.59 6.98,-27.53 6.92,-6.83 6.92,-13.69 6.92,-20.57 0,-6.99 6.86,-13.75 6.86,-20.58 0,-13.84 0,-20.76 0,-27.52 0,-6.99 0,-13.78 0,-20.62 0,-6.95 -6.86,-13.81 -6.86,-20.77 0,-6.75 -6.92,-13.61 -6.92,-20.58 0,-6.78 -6.98,-13.73 -6.98,-20.56 -6.85,-6.97 -6.85,-13.86 -13.83,-20.63 -6.99,-6.93 -20.73,-20.66 -27.56,-27.56 -6.92,-6.8 -20.83,-13.77 -27.73,-13.77 -6.83,-6.77 -20.61,-13.72 -27.58,-13.72 -13.83,0 -20.81,0 -34.59,0 -6.83,0 -20.66,0 -27.62,0 -13.88,0 -20.64,6.95 -27.62,6.95 -6.88,0 -20.78,6.77 -27.65,6.77 -6.9,6.98 -13.75,6.98 -20.69,13.77l0 0 0 0 0 0 0 0 0 0 0 0 -6.9 0 0 6.9 0 0 0 0 0 0 0 0 0 0 0 6.91 0 0 0 0c-6.88,6.82 -6.88,13.75 -13.76,20.51 0,0 -6.98,6.89 -6.98,13.86 -6.92,0 -6.92,6.84 -13.9,13.78 -6.84,0 -6.84,6.78 -13.66,6.78 0,6.97 -6.88,6.97 -13.87,6.97 0,6.86 -6.96,6.86 -6.96,6.86 -6.9,6.75 -6.9,6.75 -6.9,6.75 -6.97,0 -6.97,0 -6.97,0 -6.78,0 -13.75,0 -20.57,0 0,0 -6.95,0 -13.94,-6.75 -6.91,0 -6.91,0 -13.79,0l-6.99 -6.86c-6.8,0 -6.8,-6.97 -13.66,-6.97 0,0 0,-6.78 -6.93,-6.78l0 -6.95c-6.95,-6.84 -6.95,-6.84 -6.95,-13.8l0 0 0 0 0 0c0,-6.89 0,-6.89 0,-6.89l0 0 0 0c0,-6.77 0,-6.77 0,-6.77l0 0c0,-6.93 0,-13.75 0,-20.66 0,-6.9 0,-13.7 6.95,-13.7 0,-6.98 0,-13.75 6.93,-20.69 0,-6.76 0,-13.66 6.86,-20.61 0,0 6.8,-6.86 6.8,-13.77 6.99,-6.81 6.99,-6.81 13.87,-13.76 0,-6.86 0,-6.86 6.91,-13.61 0,0 6.99,0 6.99,-6.97 13.77,-6.83 34.49,-13.77 48.35,-20.65 20.69,-6.83 34.51,-13.71 55.29,-20.54 20.73,-6.93 41.35,-13.77 69.12,-20.72 20.64,-6.88 41.44,-13.66 69.02,-13.66 20.8,-6.95 48.31,-6.95 69.14,-13.7 27.56,0 55.29,0 82.83,0 20.85,0 48.34,6.75 75.98,6.75 20.76,0 34.62,6.95 55.3,6.95l0 -309.4 0 0 0 0zm0 495.01l0 329.98c-6.83,6.84 -6.83,6.84 -6.83,13.77 -20.8,27.43 -41.52,54.96 -62.22,89.31 -13.9,27.52 -34.53,55 -55.31,82.54 -13.86,27.53 -34.47,54.97 -48.37,82.54 -13.83,20.52 -27.62,41.22 -41.39,61.89 -13.83,13.71 -20.83,27.39 -27.73,41.19 -13.83,13.75 -34.46,41.24 -62.17,75.62 -27.62,34.48 -55.25,68.72 -89.8,109.92 -34.46,41.34 -68.99,82.52 -110.47,130.6 -41.52,41.39 -82.95,89.54 -124.41,137.65 -41.39,41.15 -82.86,89.32 -131.28,137.42 -41.45,41.36 -82.86,82.54 -124.3,123.87 -48.39,41.19 -82.95,75.52 -124.41,103.1 -34.48,34.33 -69,54.92 -103.6,75.48l0 0 -6.91 6.98 -6.9 0 0 0 -6.84 6.82 0 0 -6.95 6.99 0 0c-20.85,13.66 -41.46,27.37 -62.28,41.15 -27.52,13.83 -48.28,27.56 -82.78,41.28 -27.79,20.68 -62.24,34.38 -96.72,48.04 -34.69,13.8 -76.06,27.53 -117.49,41.36 -41.39,6.75 -82.86,20.61 -131.25,20.61 -48.4,6.91 -96.76,13.75 -151.97,6.91 -55.22,0 -117.46,-6.91 -172.74,-13.81 -62.24,-13.71 -131.32,-27.54 -193.41,-48.1 -27.69,-6.97 -55.27,-20.63 -82.91,-34.34 -34.62,-13.78 -62.16,-27.62 -89.87,-41.34 -34.5,-13.66 -62.14,-34.39 -89.79,-54.98 -34.48,-20.58 -62.2,-41.29 -89.77,-68.71 -20.78,-27.56 -48.34,-55.09 -69.12,-89.41 -20.72,-27.53 -41.42,-61.82 -55.29,-103.08 -13.77,-34.4 -27.49,-75.68 -27.49,-123.82 -7.01,-41.27 -7.01,-89.39 -7.01,-137.49 0,-6.84 0,-6.84 0,-13.81 0,-6.79 0,-13.67 7.01,-20.5 0,-6.88 0,-20.69 0,-34.41 6.77,-13.86 6.77,-27.44 6.77,-41.27 6.95,-13.7 13.77,-27.47 13.77,-41.24 6.95,-13.85 13.87,-34.39 20.82,-48.17 13.86,-13.78 20.69,-27.44 27.52,-48.11 13.9,-13.71 27.78,-27.44 41.52,-41.12 6.9,-6.92 13.78,-13.87 20.71,-20.69 13.83,-6.99 20.78,-13.78 27.61,-20.67 6.97,0 20.75,-6.89 27.66,-13.68 13.9,0 20.81,-6.93 34.51,-13.82 6.95,0 20.78,-6.95 27.78,-6.95 13.7,0 27.49,-6.84 34.44,-6.84 13.86,0 27.67,0 34.59,0 13.76,0 27.64,0 41.47,0 20.59,0 48.33,0 68.99,6.84 13.9,6.95 34.67,13.84 55.25,20.77 13.92,6.79 27.81,13.68 41.52,20.56 13.81,13.78 27.64,20.61 41.39,34.48 6.98,13.68 20.72,20.46 27.61,34.24 6.99,13.79 13.94,27.54 20.93,41.2 0,13.78 6.84,20.78 6.84,34.48 6.74,13.62 6.74,27.47 6.74,41.24 0,13.77 0,27.47 0,34.32 0,13.85 0,20.56 0,34.42 -6.74,6.87 -6.74,20.63 -13.58,27.53 0,13.71 -7,20.59 -7,27.38 -6.95,6.98 -13.94,13.81 -13.94,20.77 -6.88,6.84 -13.77,13.74 -20.63,20.58 -6.98,6.8 -13.81,6.8 -20.72,13.73 -6.88,6.84 -13.83,6.84 -20.81,6.84 -13.8,0 -20.54,6.97 -27.53,6.97 -6.91,0 -13.88,0 -20.83,0 -6.86,0 -13.81,0 -20.58,0 -6.98,0 -13.86,0 -13.86,0 -6.91,0 -13.93,0 -20.81,0 -6.84,0 -6.84,0 -13.78,-6.97 -6.88,0 -13.77,0 -13.77,-6.84 -6.97,0 -13.9,0 -13.9,-6.93 -6.95,0 -13.83,-6.8 -13.83,-6.8 -6.84,-6.84 -6.84,-13.75 -13.71,-13.75 0,-6.84 -6.92,-6.84 -6.92,-13.79 -6.91,-6.84 -6.91,-13.81 -6.91,-13.81 -6.99,-6.79 -6.99,-13.67 -6.99,-20.5 0,0 -6.89,-6.88 -6.89,-13.78 0,-6.91 0,-6.91 0,-13.76 0,-6.87 -6.92,-13.74 -6.92,-13.74 0,-7 0,-7 0,-7l0 -6.71 0 -6.86c0,0 0,0 0,-6.99l-6.84 0c0,-6.84 0,-6.84 0,-6.84 0,0 0,0 0,-6.95l0 0c-6.92,0 -6.92,0 -13.78,0 0,0 -6.95,0 -6.95,6.95 -6.95,0 -13.86,0 -13.86,6.84 -6.95,0 -13.78,6.99 -20.74,6.99 0,6.86 -6.79,6.86 -13.7,13.58 -7,0 -7,7 -13.93,13.86 -6.9,6.87 -13.85,13.72 -13.85,20.63 -6.84,6.9 -13.7,13.78 -13.7,20.61 -6.91,0 -6.91,0 -6.91,6.88 0,0 0,6.79 -7,6.79 0,6.98 0,6.98 0,13.81 0,0 0,6.96 -6.9,6.96 0,6.84 0,6.84 0,13.74l0 6.84c0,6.8 0,6.8 -6.91,13.73 0,0 0,6.84 0,13.8 0,6.83 0,13.71 6.91,20.57 0,0 0,6.86 0,20.58 0,6.95 6.9,13.84 6.9,20.78 0,6.78 7,13.61 7,20.49 6.91,6.9 13.77,13.83 13.77,20.67 6.84,13.76 13.78,20.61 20.69,27.47 6.93,6.86 13.93,20.65 20.84,27.53 6.79,6.83 13.75,13.75 20.58,27.47 13.86,13.76 34.62,27.61 55.31,41.26 20.79,13.69 41.42,27.5 69.15,41.25 27.56,13.72 62.23,34.41 96.72,48.07 41.42,6.92 75.97,20.67 117.53,34.48 48.34,6.86 89.73,13.77 138.06,13.77 48.35,6.77 103.63,6.77 158.93,0 48.39,-6.91 110.51,-13.77 165.76,-34.39 55.24,-13.86 117.44,-34.4 179.63,-61.93 20.69,-13.75 48.34,-27.56 75.94,-41.25 27.73,-13.65 55.37,-27.49 89.9,-48.04 27.52,-20.69 62.2,-41.36 96.75,-61.93 34.44,-20.6 69.01,-48.14 103.57,-75.7 41.47,-20.58 75.91,-54.96 110.51,-82.43 41.54,-27.61 76.03,-61.89 110.58,-96.37 34.56,-34.36 76,-68.64 110.51,-109.82 34.55,-34.44 69.08,-75.76 96.64,-116.92 0,0 6.97,-6.99 20.81,-27.56 13.88,-13.72 34.53,-41.23 62.25,-68.72 20.57,-34.32 48.39,-68.73 82.83,-110.08 27.64,-34.31 62.23,-82.41 96.69,-123.69 34.55,-48.1 69.15,-89.41 103.62,-137.53 34.59,-48.17 69.19,-96.24 103.65,-137.48 34.62,-48.1 62.24,-89.29 89.76,-123.68 13.9,-27.53 27.76,-48.16 41.52,-61.9l0 0 0 0zm0 866.19c-13.76,6.92 -20.68,13.7 -34.54,27.6 -20.76,13.76 -41.46,34.33 -62.12,48.07 -20.74,20.63 -41.55,34.4 -55.3,54.95 -20.76,13.85 -34.59,27.56 -55.32,34.42 -13.75,13.72 -20.66,27.53 -34.55,34.41 -6.83,0 -13.83,6.83 -13.83,6.83 -13.75,13.67 -34.55,34.44 -55.16,48.18 -13.83,13.64 -27.73,27.41 -41.44,48.08 -20.75,13.73 -34.64,27.44 -41.54,48.22 -13.79,13.61 -27.58,27.39 -34.46,48.04 -13.9,13.72 -20.87,27.44 -27.71,48.11 -13.71,13.75 -20.69,27.47 -20.69,48.15 -6.96,13.73 -13.86,27.41 -20.83,48.08 0,13.75 0,27.46 -6.78,48.16l0 0c0,0 0,0 0,6.84l0 0c0,0 0,0 0,6.83l0 0 0 0c0,6.92 0,6.92 0,6.92l0 0c0,20.57 0,34.42 6.78,48.1 0,13.75 0,20.61 6.97,34.4 0,13.75 6.9,20.58 6.9,34.31 6.96,6.98 13.94,20.78 13.94,27.56 6.88,6.88 6.88,13.79 13.71,20.59 6.84,6.92 6.84,13.78 13.81,20.73 0,0 0,6.88 6.92,6.88 0,6.78 0,6.78 0,6.78 20.74,20.67 48.34,41.34 69.11,55.05 20.63,13.66 48.39,20.63 69.03,27.46 20.81,6.98 48.44,6.98 69.16,6.98 20.66,0 41.39,0 62.2,-6.98 20.61,-6.84 41.39,-6.84 62.17,-13.8 13.7,-6.91 34.53,-20.57 48.27,-27.37 13.77,-6.95 27.67,-13.78 34.62,-20.68 6.91,-6.95 13.85,-6.95 20.68,-13.72l0 -192.56 0 0 0 -96.3c-6.83,0 -6.83,6.99 -13.76,6.99 -6.91,20.57 -20.77,34.29 -34.58,48.1l0 0 0 0 0 0 0 0 0 0 0 0 0 0 0 0c-13.75,13.72 -20.69,27.46 -34.59,34.4 -6.93,13.63 -13.72,20.62 -27.49,34.39 -6.97,6.77 -20.85,13.72 -27.78,20.51 -6.92,13.81 -20.61,13.81 -27.53,20.66 -6.98,6.99 -13.83,13.75 -27.79,13.75 -6.81,6.84 -13.75,6.84 -20.57,6.84 -6.92,0 -13.83,0 -20.83,0 -6.9,0 -13.73,0 -20.73,-6.84 0,0 -6.78,0 -6.78,-6.76l-6.97 -6.99c-6.88,-6.84 -6.88,-6.84 -6.88,-13.79 -6.95,0 -6.95,-6.86 -6.95,-6.86 0,-6.8 -6.98,-6.8 -6.98,-13.75 0,0 0,-6.77 0,-13.68l-6.88 -6.86c0,-6.99 0,-6.99 0,-13.81l0 0 0 0c0,0 0,0 0,-6.81l0 0 0 0 0 0c0,0 0,0 6.88,0 0,-6.94 0,-6.94 0,-6.94 6.98,-20.58 20.81,-48.07 34.55,-75.57 13.83,-20.68 34.64,-48.17 48.39,-68.71 20.73,-27.58 34.56,-48.22 55.32,-75.7 20.68,-20.67 41.52,-41.15 62.08,-61.93 13.88,-20.58 34.57,-41.15 55.33,-54.96 13.86,-13.73 20.77,-27.47 34.54,-34.31l0 -240.72 0 0 0 0zm0 625.63l0 0 0 0 0 0 0 0 0 0 0 0 0 0zm0 0l0 0 0 0 0 0 0 0z"/>
   </g>
   <g>
    <path class="fil1" d="M7689.13 1761.27l0 0 0 0 0 0 0 0 0 0 0 0 0 0 0 0c-13.69,0 -27.54,0 -41.38,-6.84 -13.81,0 -27.55,0 -41.45,0 -13.86,0 -27.63,0 -41.39,0 -13.82,6.84 -27.76,6.84 -41.42,6.84 -13.9,0 -27.74,0 -34.75,7.01 -13.67,0 -27.49,0 -41.36,6.84 -13.77,0 -20.72,6.87 -34.53,6.87 -6.89,6.83 -13.77,6.83 -27.67,6.83l0 460.65c13.9,-6.88 20.78,-20.56 27.67,-34.38 20.75,-34.26 48.39,-68.72 62.22,-96.21 20.69,-27.58 41.47,-54.98 55.24,-75.68 20.78,-20.61 34.6,-34.4 48.36,-48.17 13.77,-13.59 27.63,-27.43 41.53,-34.34 6.8,-13.61 20.58,-20.61 27.55,-27.48 6.89,-6.84 13.84,-6.84 20.81,-13.71 6.88,0 13.77,0 20.57,0l6.99 0 0 0c0,0 0,0 0,6.86 6.84,0 6.84,0 6.84,0 0,0 0,0 0,6.84l0 0 0 6.87c0,0 0,0 0,7l0 0c0,6.71 0,13.61 0,20.52 0,6.88 0,13.83 0,20.63 -6.84,6.8 -6.84,20.56 -6.84,27.53 0,6.83 0,13.81 0,20.57 -6.99,13.73 -6.99,20.56 -6.99,27.56 0,6.88 0,20.54 -6.8,27.41 0,6.95 0,13.78 0,20.69 0,6.88 0,13.75 -6.89,20.67 -6.88,27.39 -13.85,48.17 -20.8,75.48 -6.89,27.56 -20.7,55.12 -27.64,82.54 -13.75,27.51 -20.69,55.05 -34.55,89.49 -13.77,27.32 -27.53,54.94 -41.35,82.41 -13.94,34.4 -27.6,61.89 -41.49,89.39 -13.84,34.39 -27.65,61.87 -48.35,89.38 -13.87,34.39 -27.64,61.84 -48.39,89.38 -6.89,13.76 -13.77,27.47 -27.67,41.19l0 350.66c6.91,0 13.9,-6.92 20.78,-13.72 27.64,-13.79 55.29,-34.37 75.98,-61.91 27.65,-20.59 55.21,-48.15 82.97,-68.69 27.53,-27.56 48.34,-61.97 75.87,-89.33 27.78,-27.64 48.35,-61.96 76.11,-96.37 20.66,-34.36 41.39,-68.66 62.09,-102.98 20.76,-34.5 41.47,-68.9 55.29,-110.04 13.83,-34.44 27.68,-75.68 41.5,-110.1 13.87,-41.15 20.63,-75.56 27.56,-116.92 6.94,-41.15 6.94,-89.25 6.94,-130.53 6.98,-41.15 0,-75.61 0,-116.9 -6.94,-34.31 -13.87,-68.75 -20.63,-96.29 -7.01,-27.36 -13.87,-55 -27.69,-82.43 -6.99,-27.56 -20.76,-48.14 -34.52,-68.83 -13.79,-13.73 -27.69,-34.3 -41.55,-48.08 -13.7,-13.76 -27.61,-20.63 -48.34,-34.33 -13.75,-6.84 -27.61,-13.86 -48.42,-13.86l0 0zm-303.94 27.56c0,6.86 -6.84,6.86 -6.84,6.86 -48.34,13.76 -89.88,34.53 -131.29,61.85 -41.46,27.58 -76.01,54.98 -117.48,89.55 -34.45,34.36 -68.99,68.68 -96.73,109.82 -34.51,34.4 -62.12,75.76 -89.76,116.95 -27.63,48.13 -48.39,89.41 -69.02,137.51 -20.75,41.15 -41.56,89.38 -55.33,130.56 -13.78,48.07 -20.71,96.34 -34.57,137.61 -6.92,48.11 -6.92,89.26 -13.74,130.53 0,27.56 0,48.14 6.82,68.79 0,20.63 0,48.12 6.92,61.96 0,20.48 0,41.15 6.95,61.82 6.91,20.61 6.91,34.33 13.84,55.01 6.95,13.63 13.78,34.39 20.61,48.11 6.95,13.66 13.9,27.45 20.76,41.2 7,13.76 20.78,27.54 27.75,41.34 6.83,13.66 20.64,20.57 27.61,34.29 13.78,6.86 20.71,13.81 27.56,20.69 13.86,6.78 20.85,13.73 34.62,20.5 6.88,0 20.69,6.95 27.61,13.84 13.86,6.84 27.65,6.84 34.55,13.78 13.75,0 27.66,6.8 41.47,6.8 13.71,0 27.64,6.91 41.47,6.91 6.87,0 27.56,0 41.44,0 13.79,0 27.61,0 41.39,0 6.95,0 13.82,0 20.81,0 13.77,-6.91 20.58,-6.91 27.49,-6.91 6.98,0 20.81,-6.8 27.76,-6.8 6.88,-6.95 20.63,-6.95 27.61,-13.78 6.86,0 20.81,-6.89 27.61,-13.84 13.75,-6.77 20.74,-6.77 27.64,-13.72 13.88,-6.78 20.81,-13.66 27.64,-20.61 6.84,0 6.84,-6.86 6.84,-6.86l0 -350.66c-6.84,13.81 -13.68,34.51 -20.61,48.13 -13.88,13.83 -27.78,34.41 -41.52,48.1 -6.8,20.78 -20.74,34.48 -34.59,48.14 -6.91,13.83 -20.63,27.49 -27.58,41.35 -13.83,13.63 -20.81,20.62 -34.53,34.39 -6.86,6.77 -20.76,20.51 -27.63,27.38 -6.95,6.95 -20.73,13.79 -27.68,13.79 -6.86,6.99 -13.76,13.75 -20.66,13.75 -6.99,6.84 -13.88,6.84 -20.82,6.84 -6.91,0 -6.91,0 -6.91,6.93 -6.84,0 -6.84,0 -6.84,0 -6.87,0 -6.87,0 -6.87,0l-6.92 0 0 0c0,-6.93 0,-6.93 -6.91,-6.93l0 0 0 0 0 0c-7.01,-6.84 -7.01,-6.84 -7.01,-6.84 0,-6.76 0,-6.76 -6.92,-13.75 0,0 0,-6.84 0,-13.79 0,0 -6.83,-6.86 -6.83,-13.66 0,-6.95 0,-13.72 0,-27.49 0,-6.99 0,-20.62 0,-27.56 0,-13.75 0,-27.46 0,-41.28 0,-13.72 6.83,-27.46 13.75,-48.14 7.01,-20.48 13.93,-41.24 20.85,-68.73 13.71,-27.49 20.62,-54.94 34.45,-82.49 13.88,-27.43 27.64,-61.85 41.39,-96.22 13.94,-27.47 34.71,-61.87 48.38,-96.27 20.84,-34.29 41.55,-68.68 55.3,-103.09 20.81,-34.31 41.54,-68.75 62.24,-103.12 13.88,-20.68 27.64,-41.28 34.49,-61.89l0 -460.65z"/>
   </g>
   <path class="fil1" d="M13464.94 2160.06l0 0 -7 6.93 0 0 0 6.87 -6.95 0 0 6.98 0 0 -6.95 6.77 13.9 6.87 20.61 6.84 13.76 6.84 13.96 6.95 13.89 6.89 13.76 6.93 20.8 13.68 13.76 6.88 0 -6.88 0 0 6.79 -6.89 0 0 0 0 0 -6.79 6.76 0 0 -6.93c7.07,-6.89 7.07,-13.84 21.02,-20.68 6.83,-6.84 13.77,-20.48 20.61,-27.45 6.95,-6.87 20.72,-20.73 27.73,-27.48 6.83,-6.93 20.61,-20.63 27.61,-27.49 13.78,-6.88 20.85,-20.63 34.55,-27.58 7,-6.86 20.61,-13.69 27.61,-20.52 13.77,-6.88 20.72,-13.88 27.65,-20.71 6.9,-6.86 13.85,-6.86 20.73,-6.86 0,6.86 0,20.69 -6.88,34.41 0,6.83 -6.95,20.64 -13.85,34.38 0,13.75 -6.93,34.37 -13.88,48.05 -7,13.8 -13.77,27.55 -27.56,48.09 -6.84,13.84 -13.83,34.45 -20.78,48.13 -13.82,20.76 -20.77,34.41 -34.6,55.09 -6.79,13.71 -13.78,34.37 -27.61,48.04 -6.89,20.78 -20.72,34.48 -27.56,48.1l-13.77 20.78 -7 20.61 -14.02 20.54 -6.76 20.56 -13.78 20.73 -13.77 20.66 -7.01 13.71 -13.77 20.65 -41.39 75.61 -41.5 82.54 -41.44 75.58 -41.39 75.66 -41.51 75.57 -41.55 75.66 -41.44 75.59 -41.34 82.49 48.39 0 48.29 0 48.43 0 48.34 0 41.39 0 48.34 0 48.39 0 48.34 0 20.78 -41.17 20.77 -41.32 13.78 -34.44 20.78 -41.15 20.61 -41.24 13.83 -41.34 20.77 -34.36 20.78 -41.28c20.56,-41.18 41.44,-75.59 62.17,-109.95 20.72,-41.24 41.27,-75.57 62.05,-109.99 20.8,-34.37 41.46,-61.85 62.24,-96.24 13.77,-34.4 34.55,-61.98 55.33,-96.34 20.61,-27.36 41.39,-54.9 62.11,-89.23 13.83,-27.6 34.61,-55.05 55.33,-82.46 20.67,-20.69 34.56,-48.25 55.22,-75.81 20.72,-20.54 34.55,-48.09 55.1,-68.7 7.01,-6.78 14.02,-20.56 21.02,-27.44 13.77,-13.75 20.54,-20.69 27.38,-34.38 6.94,-6.84 20.96,-13.72 27.72,-27.55 13.85,-6.86 20.67,-13.73 27.68,-27.47 13.94,-6.83 20.77,-13.79 34.55,-20.66 6.95,-6.9 13.71,-13.7 20.78,-20.5 13.77,-6.95 20.77,-6.95 27.56,-13.83 7,0 13.76,0 20.78,-6.91 0,6.91 0,6.91 0,6.91 6.83,0 6.83,0 6.83,0 0,6.88 0,6.88 0,6.88 0,0 0,0 0,6.95 6.93,0 6.93,0 6.93,0 0,6.8 0,6.8 0,6.8l0 6.8c0,0 0,0 0,6.9l0 0c0,0 0,0 0,6.86l0 0c0,0 0,0 0,6.97l0 0c0,0 0,0 0,6.83l0 0c0,0 0,0 0,6.99 0,6.76 0,13.62 0,20.49 0,6.84 7.01,13.83 7.01,27.55 0,6.83 6.95,13.69 6.95,20.64 6.84,6.84 13.65,13.75 13.65,13.75 6.95,6.88 13.77,13.75 20.72,20.67 7.01,6.78 14.01,6.78 20.78,13.71 6.78,0 13.84,6.75 20.61,6.75 7,6.93 14.01,6.93 27.79,6.93 6.82,6.93 20.59,6.93 27.61,6.93 13.76,0 27.54,0 34.55,-6.93 13.76,0 20.78,0 34.54,-6.93 6.84,-6.75 20.61,-13.68 27.56,-13.68 7,-6.78 20.78,-13.7 27.61,-27.44 7.01,-6.91 13.85,-13.75 20.78,-20.69 7.01,-13.69 13.85,-20.52 20.8,-27.41 7,-13.83 7,-20.69 13.83,-34.32 0,-13.81 0,-27.64 0,-48.14 0,-13.83 -6.84,-27.64 -6.84,-41.35 -7,-13.72 -13.94,-27.57 -20.78,-41.28 -7.01,-6.84 -13.94,-20.58 -20.78,-34.31 -7.01,-6.97 -20.79,-20.69 -27.62,-27.54 -13.94,-6.75 -27.71,-13.73 -34.55,-20.58 -13.76,-6.93 -27.71,-13.77 -41.56,-20.69 -6.83,-6.86 -20.54,-6.86 -34.55,-13.69 -20.59,0 -34.37,-6.87 -55.15,-6.87 -20.61,0 -34.62,0 -55.34,6.87 -20.6,0 -34.54,0 -55.15,6.83 -13.78,6.86 -27.79,13.78 -48.39,20.63 -13.78,6.93 -27.56,13.78 -41.5,20.76 -20.67,6.75 -34.44,13.59 -48.46,27.32 -13.77,6.97 -20.54,13.8 -34.32,27.58 -14,6.86 -27.78,13.7 -34.55,27.41 0,-6.83 0,-6.83 0,-6.83l0 -6.88 0 0c0,-6.84 0,-6.84 0,-6.84 0,0 0,-6.86 6.78,-6.86l0 0c0,-6.88 0,-6.88 0,-6.88l0 -6.89 0 -6.84 0 -6.97c0,0 0,-6.83 -6.78,-6.83 0,-6.9 0,-6.9 0,-6.9 0,-6.84 0,-6.84 0,-6.84 0,-6.75 0,-6.75 0,-6.75 0,-6.98 -7.01,-6.98 -7.01,-6.98 0,-6.85 0,-6.85 0,-13.78 -6.78,0 -6.78,-6.84 -13.83,-13.76 0,0 -6.94,-6.86 -6.94,-13.69 -6.79,0 -13.78,-6.87 -13.78,-13.72 -6.84,0 -13.83,-7.01 -20.66,-7.01 0,-6.84 -6.95,-6.84 -13.9,-13.75 -6.79,0 -13.83,-6.8 -20.67,-6.8 -6.89,0 -20.72,-6.84 -27.72,-6.84 -6.84,0 -13.78,-6.88 -20.78,-6.88 -27.56,0 -55.17,0 -75.94,0 -27.56,6.88 -55.17,20.51 -82.95,27.43 -27.62,13.85 -55.16,34.39 -82.96,55.02 -27.44,13.78 -55.1,41.26 -82.71,61.89 -27.72,20.64 -48.34,48.17 -76.06,75.74 -27.61,20.52 -48.39,47.95 -69,75.51 -20.77,20.61 -41.55,48.19 -62.21,68.71 -13.96,27.58 -27.73,48.14 -41.34,68.75z"/>
   <path class="fil1" d="M15233.5 1541.4c0,6.75 0,20.57 0,27.52 6.77,6.84 6.77,20.62 6.77,27.38 7.01,6.92 7.01,20.76 13.77,27.6 0,6.76 6.88,20.63 13.83,27.49 0,6.83 6.95,13.76 13.96,20.59 6.77,6.9 13.76,13.76 20.6,20.65 6.78,6.83 13.73,13.71 20.77,20.57 7.01,0 13.85,6.92 27.56,13.81 -6.76,0 -6.76,6.88 -13.71,13.72 -6.84,6.8 -13.85,6.8 -13.85,13.71 -7.04,6.84 -13.99,13.85 -20.77,20.69 -6.84,6.87 -13.83,13.7 -20.6,20.56 -7.01,6.92 -13.96,13.76 -20.91,20.69 -13.64,6.85 -20.66,13.83 -27.43,20.58 -7.01,6.84 -20.77,13.75 -27.79,20.57 -13.76,6.97 -20.55,13.8 -34.56,13.8 0,6.89 0,6.89 -6.76,6.89 0,0 0,0 0,6.88 -7.01,0 -7.01,0 -7.01,0 0,6.86 0,6.86 0,6.86 0,0 -6.83,0 -6.83,6.84l0 0 0 6.88 0 0 0 0c0,0 0,0 0,6.83l0 0 0 0 0 0 0 0 0 0 0 0c0,0 0,0 0,6.99 0,0 0,0 6.83,0 0,6.86 0,6.86 0,6.86 0,0 0,0 0,6.84 7.01,0 7.01,0 7.01,0l6.76 6.87 7.01 0 7 7c13.78,0 20.55,0 34.33,0 14.01,0 27.79,0 41.44,-7 20.91,0 41.51,-6.87 55.24,-13.72 20.89,-6.86 41.61,-13.85 69.21,-20.68 20.72,-6.88 41.5,-20.58 62.35,-34.36 20.54,-13.8 48.27,-27.53 68.93,-48.1 20.78,-13.78 41.39,-34.41 62.17,-61.97 20.72,-20.54 34.55,-48.07 55.33,-75.53 0,-6.86 6.78,-13.76 6.78,-13.76 7,-6.83 7,-13.76 7,-20.59 6.79,-6.86 6.79,-13.75 6.79,-20.73 7,-6.76 7,-13.59 7,-13.59 0,-6.95 0,-13.84 6.84,-20.76 0,-6.76 0,-13.75 0,-20.54 0,-6.84 0,-13.78 0,-20.65 0,-6.96 0,-13.71 0,-13.71 0,-20.61 0,-34.39 0,-48.25 -6.84,-13.7 -6.84,-27.43 -13.83,-41.12 -6.79,-13.75 -13.78,-27.45 -20.56,-34.36 -7,-13.81 -14,-20.72 -27.78,-34.49 -6.84,-6.86 -20.61,-20.58 -27.56,-27.41 -13.83,-6.95 -27.61,-13.82 -41.39,-20.65 -13.94,0 -27.61,-6.88 -41.44,-6.88 -13.94,-6.84 -27.73,-6.84 -41.5,-6.84 -13.78,0 -27.61,0 -41.56,6.84 -13.78,0 -27.56,6.88 -41.32,13.71 -13.84,0 -27.61,6.87 -41.39,20.65 -7.01,6.97 -21.01,13.72 -27.79,20.58 -13.83,13.76 -20.6,27.54 -27.61,34.49 -6.95,13.66 -13.9,27.38 -20.78,41.15 -6.76,6.9 -13.77,20.63 -13.77,34.33 -6.77,13.86 -6.77,27.64 -6.77,48.25z"/>
   <g>
    <path class="fil1" d="M12324.95 2490l0 0c34.55,-13.58 75.88,-27.41 110.43,-41.11 41.46,-13.77 75.99,-34.4 117.57,-55.01 34.55,-20.69 68.99,-41.36 103.55,-68.81 34.5,-20.66 62.1,-48.04 89.9,-82.48 20.59,-27.5 41.44,-61.76 55.33,-96.22 13.59,-34.37 27.43,-75.59 27.43,-116.79 0,-6.99 0,-13.81 -6.88,-27.64 0,-6.9 0,-20.5 0,-27.44 0,-6.88 -6.95,-20.69 -6.95,-27.41 0,-7 -6.84,-13.87 -6.84,-20.71 -6.76,-13.85 -6.76,-20.68 -13.77,-27.56 0,-6.84 -6.88,-13.7 -13.94,-20.58 0,-6.89 -6.84,-13.73 -13.78,-20.69 0,-6.83 -6.84,-6.83 -13.71,-13.73 -6.88,-6.84 -13.9,-13.59 -20.9,-20.57 -6.78,0 -13.77,-6.85 -20.61,-13.78 -6.76,0 -13.77,-6.84 -20.77,-6.84 -6.95,-6.92 -20.73,-6.92 -27.55,-6.92 -6.95,-6.86 -13.84,-6.86 -27.62,-6.86 -6.88,-6.83 -13.88,-6.83 -27.73,-6.83 -6.81,0 -20.59,0 -27.61,0 -6.95,0 -20.78,0 -27.54,0 -69.18,6.83 -131.35,20.61 -186.69,41.24 -13.77,0 -27.54,6.98 -41.31,13.73l0 185.63c6.83,-6.83 20.7,-13.79 27.54,-20.66 20.79,-13.7 48.34,-27.44 69.11,-34.33 27.68,-13.81 48.22,-13.81 76.02,-13.81l6.95 0c6.81,0 6.81,0 13.64,0 6.95,0 6.95,0 13.9,0 7.06,6.9 13.83,6.9 13.83,6.9 7.01,6.91 13.77,6.91 20.56,6.91 0,6.88 7.04,13.83 7.04,13.83 6.95,6.8 6.95,13.59 13.96,20.5 0,6.86 0,13.83 0,20.66 0,13.75 -7.01,34.31 -7.01,48.19 -6.95,20.52 -13.99,34.31 -20.78,48.1 -13.77,20.56 -27.61,34.24 -41.5,48.1 -13.64,13.85 -27.49,27.49 -48.39,41.16 -13.66,20.77 -34.44,34.45 -55.15,48.13 -27.62,13.81 -48.4,20.76 -75.94,34.41 -6.95,6.95 -13.77,6.95 -13.77,6.95l0 192.36 0 0 0 0zm0 660.06c13.77,-13.66 34.55,-27.47 48.33,-41.19 20.78,-13.79 41.39,-34.37 55.22,-55.08 20.78,-20.58 34.55,-41.24 55.27,-61.75 13.85,-20.76 27.61,-41.33 41.39,-68.8l0 0 0 -6.95 6.95 0 0 0 0 -6.86 0 0 0 -6.8 7.06 0 -20.96 -13.7 -20.59 -20.78 -20.78 -13.69 -20.68 -13.65 -13.78 -13.84 -20.78 -20.54 -20.77 -13.87 -20.67 -13.71 0 0 0 6.88 -6.88 0 0 6.83 -7.01 0 0 6.92 0 0 -6.76 6.95c-7.01,13.62 -13.85,20.54 -27.73,34.38 -6.83,6.8 -6.83,6.8 -6.83,13.65l0 295.6 0 0zm-241.85 -584.32l0 0c0,0 7.01,0 7.01,-6.98l6.83 0c7.01,0 7.01,0 13.78,0 0,-6.79 6.76,-6.79 6.76,-6.79 7.01,0 7.01,0 7.01,0 7.01,0 7.01,0 7.01,0 7,-6.88 7,-6.88 7,-6.88 20.54,0 48.34,-13.71 82.66,-20.61 27.68,-6.91 62.24,-20.63 103.79,-34.49l0 -192.36c-27.61,13.73 -48.4,20.56 -76.11,34.36 -34.56,6.83 -62,20.52 -103.58,34.42l0 0 0 0c-6.76,0 -6.76,0 -6.76,0 0,0 0,0 -7,0l0 0 -7.01 0 0 0 0 0c-7.01,0 -7.01,0 -13.76,6.77 0,0 0,0 -6.78,0l-7.01 0c-6.83,0 -6.83,0 -13.84,0 0,0 0,0 -6.93,0 0,7 -7.01,7 -7.01,7l-6.84 0 -6.84 0c6.84,-20.78 13.67,-41.36 27.61,-61.98 7.01,-20.56 20.85,-41.16 34.38,-68.72 14.02,-20.56 27.78,-41.33 48.39,-68.64 20.96,-20.78 34.62,-48.17 55.28,-68.83 20.78,-20.69 41.44,-41.22 62.24,-61.93 13.94,-13.73 27.54,-20.49 41.56,-27.47l0 -185.63c-48.4,13.75 -90.01,41.27 -138.11,61.85 -55.33,34.4 -103.74,75.68 -159.07,123.78 -48.39,41.3 -96.72,89.41 -138.11,144.39 -41.49,48.11 -82.88,103.1 -117.44,165.01 -34.39,54.97 -62.24,116.9 -82.78,171.86 -27.78,61.89 -41.55,123.79 -55.38,178.78 -13.96,61.86 -20.78,116.84 -13.96,171.82 0,27.5 0,54.97 7.06,82.49 6.9,27.49 13.74,55.08 27.56,75.59 6.95,27.64 20.73,48.17 34.72,68.76 13.67,20.65 34.39,34.36 55.17,55.09 13.77,13.66 34.55,27.38 62.16,41.22 20.73,13.78 41.39,27.49 69.12,34.24 27.61,13.88 55.15,20.71 82.76,27.69 34.74,0 62.18,6.75 96.84,6.75 20.69,0 41.46,0 62,-6.75 21.02,0 41.56,-6.98 69.35,-13.81 20.54,-6.97 41.39,-20.63 62,-27.54 20.7,-13.75 41.55,-27.47 62.09,-41.19 7.01,0 7.01,-6.95 14.02,-6.95l0 -295.6c-14.02,6.83 -20.78,13.69 -34.56,27.5 -13.84,6.97 -27.79,20.67 -41.55,34.33 -13.9,6.95 -27.68,20.67 -48.34,27.49 -13.66,6.92 -27.56,13.86 -48.34,20.67 -13.66,6.83 -27.67,13.81 -41.44,20.68 -20.61,0 -34.55,6.91 -48.4,6.91 -13.78,0 -27.61,0 -41.49,0 0,-6.91 -6.89,-6.91 -13.77,-6.91 0,0 -6.84,-6.86 -13.66,-6.86l-7.01 -6.99c-7,0 -13.76,-6.83 -13.76,-6.83 -7.01,-6.81 -7.01,-13.75 -7.01,-13.75 -6.95,-6.92 -6.95,-6.92 -13.78,-13.75 0,-6.84 0,-13.72 -7,-13.72 0,-6.95 0,-13.81 0,-20.61 0,0 0,-6.92 -6.76,-13.7 0,-6.97 0,-13.79 0,-20.78 0,-6.86 0,-13.69 0,-27.34 0,-6.93 0,-13.84 0,-27.61 0,-6.78 0,-20.65 0,-34.36 6.76,-6.93 6.76,-20.65 6.76,-27.51 7,-13.72 7,-27.44 13.83,-34.37 0,-13.77 6.95,-20.61 13.96,-34.33 6.77,-6.89 13.76,-20.68 20.78,-27.56 0,-13.73 6.83,-20.61 13.66,-27.44 0,-6.97 6.88,-13.8 13.77,-13.8 0,-6.93 6.94,-13.73 6.94,-13.73 6.95,-6.84 14.01,-6.84 14.01,-13.75 6.76,0 6.76,-6.84 13.71,-6.84 0,0 6.84,-6.96 13.67,-6.96 0,0 7.01,-6.84 13.94,-6.84z"/>
   </g>
   <g>
    <path class="fil1" d="M16518.39 1974.5c7,0 13.83,0 13.83,-6.88 6.83,-6.91 6.83,-6.91 13.71,-13.81 0,-6.71 7.01,-13.71 7.01,-20.58 0,0 7,-6.84 7,-13.71 0,-6.99 6.77,-13.81 6.77,-20.69l0 0c0,-6.84 0,-6.84 0,-6.84l0 0 0 -6.86 0 0 0 -6.88 0 0c0,0 0,0 0,-6.89 0,-6.84 0,-13.8 0,-13.8 0,-6.83 0,-13.73 -6.77,-20.57 0,-6.75 0,-13.73 0,-20.58 -7,-6.93 -7,-6.93 -7,-13.77 -7.01,-6.92 -7.01,-13.78 -7.01,-13.78 -6.88,-6.83 -6.88,-13.7 -13.71,-13.7 0,-6.84 0,-6.84 -6.84,-13.86 0,0 0,0 -7,-6.84l0 6.84 0 0 7 0 0 0 0 0 0 0 0 0 0 0 0 0 -7 0 0 213.22 0 0zm-525 -199.36c-13.9,13.7 -27.73,27.48 -41.55,41.26 -13.74,13.83 -27.68,27.43 -34.56,48.12 -13.77,13.73 -27.56,27.47 -34.55,48.02 -13.78,13.85 -20.56,34.56 -27.56,48.18 -6.78,20.74 -13.78,34.34 -20.78,55.07 -6.78,20.57 -13.77,34.3 -20.54,55.01 -7.06,20.52 -7.06,41.22 -13.9,54.97 0,20.63 0,41.24 0,61.86 -6.89,20.54 -6.89,41.31 -6.89,61.88 0,20.61 6.89,41.21 6.89,61.89 6.84,20.63 6.84,41.15 13.9,55.05 6.77,20.54 13.76,34.33 13.76,54.94 6.78,13.76 13.77,27.54 20.78,48.08 6.78,13.85 13.77,27.56 27.5,41.29 6.84,13.76 13.83,27.54 20.83,41.25 6.79,13.76 13.78,27.56 20.56,41.29 6.88,6.84 13.76,13.64 20.83,20.57 0,13.8 6.95,20.63 13.74,27.51 0,6.86 7,13.73 13.82,27.44 0,6.95 6.84,13.84 6.84,20.78 7,6.78 7,20.49 13.94,27.39 0,6.93 0,13.76 6.95,20.66 0,6.87 0,20.58 0,27.44 0,6.85 0,13.78 0,20.67 0,13.75 0,27.47 0,41.24 0,13.84 0,20.64 0,34.32 -6.95,13.85 -6.95,20.68 -6.95,34.42 0,6.92 -6.95,20.58 -6.95,27.53 0,6.88 -7,20.54 -7,27.46 -6.84,6.94 -6.84,13.75 -13.66,20.57 0,6.99 -7,13.85 -13.78,20.76 0,6.77 -6.95,13.72 -14.01,13.72 0,6.8 -6.88,6.8 -13.76,13.66l-6.78 6.95c-7,0 -13.78,6.84 -13.78,6.84 -7,0 -13.99,0 -20.83,6.99 0,0 -6.95,0 -13.73,0 -7,0 -13.77,6.76 -13.77,6.76 -7.01,0 -14,0 -20.78,0 -7,0 -13.76,0 -20.83,0 -6.84,0 -6.84,0 -13.73,-6.76 -7.05,0 -7.05,0 -13.83,0 -7.01,0 -7.01,0 -13.94,-6.99 -6.84,0 -6.84,0 -13.61,-6.84l-7.05 -6.95c-6.9,-6.86 -6.9,-6.86 -13.77,-13.66 0,0 -6.95,-6.95 -6.95,-13.72 0,-6.91 -6.95,-6.91 -6.95,-13.77 0,-13.81 0,-20.62 0,-34.48 -6.84,-6.83 -6.84,-13.66 -6.84,-20.54 0,-6.95 0,-13.81 0,-20.61 0,0 0,-6.92 0,-13.7 -6.95,0 -6.95,-6.97 -6.95,-6.97 0,-6.83 0,-6.83 0,-6.83l-6.88 -6.99 0 0 0 0 0 0 0 0 0 0 0 0 0 6.99 6.88 0 0 0c-6.88,-6.99 -6.88,-13.85 -13.88,-20.68 -6.78,-6.85 -13.77,-13.65 -13.77,-20.58 -6.95,0 -13.78,-6.91 -20.78,-13.83 -6.79,-6.84 -13.78,-6.84 -13.78,-13.62 -6.78,0 -13.77,-6.95 -20.78,-13.87 -6.78,0 -13.77,0 -20.61,-6.83 -6.78,0 -13.77,0 -20.72,0 -7,-6.88 -13.83,-6.88 -13.83,-6.88 -13.78,0 -27.56,0 -34.55,6.88 -13.78,0 -20.61,6.83 -34.44,6.83 -6.95,6.92 -20.95,13.87 -27.73,20.65 -7,6.84 -13.77,13.76 -20.54,20.68 -7.01,6.93 -14.01,13.73 -20.85,20.58 -6.95,13.69 -13.94,20.68 -13.94,27.5 -6.84,13.75 -6.84,20.67 -6.84,34.33 -6.95,6.95 -6.95,13.83 -6.95,27.49 0,6.92 0,6.92 0,13.86 0,6.81 0,13.63 0,13.63 0,6.99 6.95,13.85 6.95,20.76 0,0 0,6.77 0,13.72 6.84,6.8 6.84,13.66 13.83,13.66 0,6.95 0,13.79 6.95,20.78 6.84,6.76 6.84,6.76 13.83,13.59 7.01,6.93 13.78,6.93 13.78,13.73l0 0 0 -6.8 0 0 0 0 -6.77 0 0 -6.93 0 0 0 0c6.77,20.7 13.55,34.51 27.32,48.17 14,13.71 27.78,27.49 41.61,41.32 13.78,6.78 27.73,13.73 48.34,27.44 13.83,6.89 34.55,13.73 55.16,20.68 14,0 34.56,6.8 55.34,13.71 13.77,0 34.6,0 55.33,6.75 13.77,0 27.61,0 48.39,0 13.83,0 27.56,0 34.62,0 34.54,0 68.88,0 103.44,-6.75 27.78,-6.91 55.22,-13.71 82.95,-20.66 34.6,-13.73 55.33,-27.44 82.94,-41.17 27.56,-13.83 48.34,-34.41 69.16,-54.98 20.61,-20.78 41.39,-41.34 62.11,-68.88 13.83,-27.38 34.61,-54.97 48.39,-82.46 13.77,-34.33 20.54,-61.82 34.55,-96.15 6.83,-34.38 13.77,-75.74 20.61,-110.08 6.84,-20.67 6.84,-41.15 6.84,-61.93 0,-20.58 0,-34.33 0,-54.96 -6.84,-20.57 -6.84,-34.31 -13.67,-55.08 -6.95,-20.5 -13.77,-34.28 -20.77,-54.91 0,-13.86 -13.78,-34.42 -20.78,-48.21 -6.78,-20.52 -13.78,-34.29 -20.56,-54.9 -13.94,-13.78 -20.78,-34.33 -27.78,-48.22 -13.66,-13.7 -20.61,-34.32 -27.56,-48.1 -13.83,-13.73 -20.78,-27.38 -27.61,-41.15 -6.84,-13.78 -13.78,-27.56 -20.85,-48.17 -6.88,-13.78 -13.76,-27.49 -20.78,-41.24 -6.77,-13.8 -13.76,-27.48 -20.54,-41.19 -7,-13.78 -7,-27.58 -14.01,-41.36 -6.77,-13.69 -6.77,-27.41 -6.77,-41.24 -7,-13.73 -7,-27.47 -7,-41.27 0,-13.76 0,-27.36 0,-41.19 0,-6.91 7,-13.81 7,-13.81 0,-6.71 6.77,-13.71 6.77,-20.58 7.01,-6.84 7.01,-13.71 7.01,-20.69 7,-6.83 7,-13.71 13.77,-13.71 0,-6.84 7,-13.7 13.76,-20.58l7.01 -6.89c6.88,-6.84 6.88,-13.8 13.76,-13.8 7.06,0 7.06,-6.83 14.01,-6.83l6.84 -6.9c6.83,0 6.83,0 6.83,0 6.95,0 6.95,0 6.95,0 6.84,0 6.84,0 6.84,0 7,0 7,0 13.94,0 0,0 0,0 6.95,0 0,0 0,0 6.83,6.9l6.84 0 0 0c7,6.83 7,6.83 7,6.83 0,0 0,0 0,6.97 6.84,0 6.84,0 6.84,0 0,6.84 0,6.84 0,6.84 0,6.89 6.88,6.89 6.88,6.89 0,6.88 0,6.88 0,6.88 0,0 0,6.86 7.06,6.86 0,6.84 0,13.72 6.78,20.54 0,6.99 7.01,20.69 13.78,27.57 7,7 7,13.71 13.76,20.61 7.01,6.91 14.01,13.79 20.84,20.74 6.95,6.8 20.62,13.59 27.61,20.5 13.9,6.86 20.66,6.86 34.51,6.86 13.83,6.97 27.71,6.97 41.55,6.97 20.61,0 34.56,-6.97 55.33,-6.97 6.84,-6.86 13.61,-6.86 20.62,-6.86 7,-6.9 13.77,-6.9 20.77,-13.7 0,0 6.95,-6.8 13.78,-6.8 0,0 0,0 0,-6.95l0 -213.22 0 0 0 -6.84 0 0 0 0 0 0 0 0 0 0 0 0 0 0 0 0c0,6.84 0,6.84 0,6.84l0 -6.84 0 0c-6.84,-6.91 -13.78,-13.71 -20.78,-20.54 -13.77,-13.77 -20.78,-13.77 -27.56,-20.69 -13.78,-6.86 -20.78,-13.75 -27.61,-13.75 -13.95,-6.83 -20.78,-6.83 -34.56,-13.71 -7,0 -20.77,-6.86 -27.72,-6.86 -13.83,0 -20.67,0 -34.44,0 -6.95,-6.9 -20.89,-6.9 -27.73,-6.9 -6.84,0 -20.61,0 -27.61,0 -13.78,0 -27.56,0 -41.34,0 -7.06,0 -20.78,0 -34.61,0 -13.77,6.9 -27.72,6.9 -41.5,6.9 -13.66,6.86 -20.61,6.86 -34.55,13.75 -13.9,6.83 -27.66,6.83 -41.44,13.71 -7.01,6.86 -20.78,13.78 -34.56,20.68 -13.77,6.88 -20.61,13.72 -34.55,27.43 -13.77,6.84 -20.54,13.85 -34.44,20.69z"/>
   </g>
   <path class="fil1" d="M10328.27 1183.82l0 6.92c-6.88,6.8 -6.88,6.8 -6.88,6.8 0,6.98 0,6.98 0,13.82 -6.88,0 -6.88,6.95 -6.88,6.95 0,6.75 0,6.75 0,13.67l6.88 6.95 0 6.78c0,6.91 6.88,6.91 6.88,13.76l6.89 6.89c6.88,0 6.88,6.97 13.9,6.97l6.88 6.75c7,0 13.78,0 13.78,6.95 6.87,0 13.77,0 13.77,0 7,0 7,0 13.88,0 6.9,0 6.9,0 13.9,0 6.88,0 6.88,0 13.78,-6.95l0 0 6.83 0c0,-6.75 6.95,-6.75 6.95,-6.75 6.88,0 6.88,-6.97 6.88,-6.97 6.9,0 6.9,0 13.9,0 0,-6.89 0,-6.89 6.88,-6.89l0 0c0,-6.85 6.89,-6.85 6.89,-6.85 0,0 6.88,0 13.72,-6.91 6.95,-6.78 13.9,-6.78 20.89,-13.73 6.95,0 13.73,-6.92 20.61,-13.67 6.88,0 13.78,-6.95 27.78,-13.79 6.84,0 13.73,-6.98 20.56,-13.77 6.95,0 13.83,-6.92 20.78,-6.92 6.88,-6.83 13.77,-6.83 20.78,-6.83 6.83,-6.79 13.77,-6.79 20.66,-6.79 0,6.79 -6.88,13.61 -6.88,20.53 0,0 -6.95,13.77 -6.95,20.62 -6.83,6.95 -13.83,13.7 -13.83,27.57 -6.89,6.78 -13.77,13.69 -13.77,27.44 -6.95,6.97 -13.83,20.67 -20.78,27.44 -6.84,13.83 -6.84,20.68 -13.73,34.44 -6.84,6.88 -13.83,20.58 -20.83,27.53 0,6.83 -6.9,13.79 -13.78,27.41l-117.33 226.93 -117.57 226.86 -117.38 219.94 -117.44 227.05 -117.45 226.77 -117.55 226.89 -117.33 226.83 -117.46 226.95 41.39 0 41.39 0 41.5 0 41.51 0 48.39 0 41.44 0 41.39 0 41.44 0 6.9 -13.78 7 -20.61 13.77 -20.61 7.01 -20.73 6.83 -13.71 13.83 -20.65 6.84 -20.59 13.84 -13.76c0,0 0,0 0,-6.76 0,0 0,-6.99 7,-6.99 0,-6.84 0,-13.79 6.88,-20.66 0,0 6.9,-6.8 6.9,-13.75 0,-6.77 6.84,-13.68 6.84,-20.54 6.93,0 6.93,-6.99 13.88,-13.81l0 -6.81c6.95,-6.94 6.95,-6.94 6.95,-6.94 13.84,-34.41 41.38,-75.57 62.28,-123.73 27.49,-41.24 55.1,-89.35 82.7,-144.33 27.73,-48.17 55.33,-103.1 89.84,-151.25 34.56,-54.97 69.12,-110.03 103.67,-158.2 34.56,-48.11 76,-96.15 110.51,-137.48 34.49,-41.23 75.94,-82.58 110.5,-109.96 41.44,-34.44 76,-61.85 110.72,-75.68 41.39,-13.73 75.77,-27.47 110.38,-20.49l0 0 0 0 0 0 0 0 0 0 0 0 0 0 0 0c0,6.76 0,13.62 0,20.49 -6.84,13.83 -6.84,20.71 -13.78,34.37 0,13.81 -6.83,20.65 -13.82,34.44 -7.01,13.78 -13.95,27.49 -20.78,48.1 -6.84,13.85 -13.78,27.49 -20.61,48.11 -7.01,13.82 -20.78,27.5 -27.73,48.17 -6.84,13.77 -20.61,34.37 -27.61,48.1 -13.78,20.63 -20.78,41.15 -34.44,55.05l-13.9 20.54 -13.78 27.53 -7 20.63 -13.83 20.52 -13.83 20.78 -13.77 20.57 -13.83 27.49 -6.95 20.61c0,0 0,0 -6.84,0 0,0 0,0 0,6.88 0,0 0,0 -6.89,6.79l0 6.98c-6.84,0 -6.84,6.84 -6.84,6.84l-7 6.96 0 6.84 0 0c-7,13.75 -20.78,20.54 -27.66,34.31 -6.78,13.79 -13.73,27.54 -20.72,41.29 -13.9,13.78 -20.73,27.61 -27.61,41.23 -6.89,13.77 -20.77,34.43 -27.67,48.15 -6.88,13.73 -13.83,34.39 -20.66,48.14 -13.78,20.57 -20.78,34.4 -27.68,48.13 -6.88,20.54 -13.88,41.32 -20.78,55.02 -6.87,20.61 -6.87,34.33 -13.66,55.01 0,13.63 -7,20.62 -7,34.39 0,6.77 0,20.51 0,27.38 0,6.95 0,20.78 0,27.54 0,6.84 0,20.56 0,27.54 0,6.82 7,13.8 7,20.58 0,6.88 0,13.79 6.79,20.59 0,6.92 6.87,13.78 6.87,20.73 6.9,6.88 6.9,13.66 13.9,20.61 6.88,0 6.88,6.77 13.78,13.72 7,0 13.88,6.89 13.88,6.89 6.9,6.84 13.73,6.84 20.68,13.78 6.88,0 13.78,6.8 20.78,6.8 6.88,6.91 13.77,6.91 20.66,6.91 6.84,0 13.78,6.75 20.73,6.75 13.94,0 20.72,0 27.61,0 6.88,0 20.78,0 27.78,0 20.56,6.91 48.22,0 68.95,0 20.83,-6.75 41.63,-13.66 55.33,-20.46 20.61,-6.95 41.56,-20.68 62.17,-34.39 13.77,-13.73 34.55,-27.56 48.21,-41.34 20.95,-13.71 41.56,-34.36 55.33,-54.95 13.95,-20.52 34.56,-41.3 48.34,-61.91 14,-20.54 34.54,-41.16 48.32,-68.68 13.85,-20.69 34.79,-48.16 48.45,-68.83l0 -6.83 0 0 6.95 0 0 -6.85 0 0 6.84 -6.8 0 0 0 -6.93 -13.78 -6.91 -13.66 -13.76 -13.94 -6.78 -13.83 -6.95 -13.77 -13.75 -20.78 -6.88 -13.78 -13.78 -13.77 -6.86 0 0 0 6.86 -7 0 0 6.85 0 0 -6.84 6.93 0 0 0 6.88c-6.95,6.83 -13.77,20.69 -20.78,27.47 -6.95,13.76 -13.96,20.68 -20.72,27.61 -6.84,6.8 -13.78,13.65 -20.61,20.48 0,6.86 -7,6.86 -14,13.85 0,6.83 -6.95,6.83 -13.77,13.79 0,0 -6.84,0 -6.84,6.78 -6.95,0 -6.95,0 -6.95,0 -6.83,0 -6.83,0 -6.83,0l0 0 0 0 0 0c-7.01,0 -7.01,0 -7.01,0l0 0 0 0 0 -6.78 0 0c0,0 0,0 0,-6.97 0,0 0,0 0,-6.83 0,0 0,0 0,-6.99l0 -6.86 0 -6.83c0,-6.85 0,-6.85 0,-6.85 7.01,-6.8 7.01,-6.8 7.01,-6.8 0,-6.93 0,-6.93 6.83,-6.93l13.78 -27.45 20.78 -27.58 20.77 -27.51 13.59 -27.44 20.97 -27.54 13.77 -20.61 20.61 -27.53 20.78 -27.54c7,-13.76 13.76,-27.41 27.54,-41.14 7.01,-13.79 13.85,-34.44 27.79,-48.15 13.83,-20.66 20.66,-34.39 34.44,-54.97 7,-20.78 20.96,-41.3 34.55,-61.93 6.95,-20.61 20.78,-41.3 27.78,-61.97 13.78,-20.52 20.56,-48.1 34.33,-68.56 7.01,-20.69 14.01,-41.36 27.79,-68.86 6.83,-20.62 13.77,-41.24 20.61,-61.97 0,-13.68 6.95,-27.38 6.95,-41.12 0,-13.75 7,-20.69 7,-34.38 0,-13.72 6.84,-27.55 6.84,-41.28 0,-6.76 0,-20.57 0,-34.4 0,-13.7 0,-20.5 0,-34.33 0,-13.81 0,-20.52 -6.84,-34.39 0,-13.71 -7,-20.69 -7,-34.4 -6.95,-6.84 -13.78,-20.58 -20.73,-27.47 0,-6.84 -6.83,-6.84 -13.59,-13.8 0,-6.83 -7.01,-13.73 -14.01,-13.73 -7.01,-6.84 -7.01,-6.84 -13.78,-13.59 -7,-6.98 -13.77,-6.98 -20.54,-13.83 -7.01,0 -14.01,-6.93 -21.01,-6.93 -6.84,0 -13.78,-6.84 -20.61,-6.84 -6.77,0 -20.73,-6.92 -27.73,-6.92 -6.84,0 -13.78,0 -27.44,0 -7,0 -13.94,0 -27.78,0 -7.01,0 -20.79,6.92 -34.55,6.92 -13.78,6.84 -20.78,6.84 -34.55,13.77 -13.78,0 -27.61,6.85 -41.58,13.83 -13.59,0 -27.37,6.75 -48.32,13.59 -13.66,6.9 -27.44,13.73 -41.46,13.73 -13.71,6.97 -27.37,13.8 -41.31,20.69 -13.78,6.88 -27.61,13.75 -34.44,20.58 6.83,-20.58 20.66,-48.1 34.44,-75.57 13.94,-20.63 20.77,-54.96 41.31,-82.51 14.02,-27.53 27.79,-61.85 41.46,-96.2 13.95,-34.41 27.78,-68.77 41.56,-103.12 13.77,-34.39 27.73,-68.77 34.55,-96.35 13.78,-34.33 27.56,-68.73 34.55,-103.09 7.01,-27.47 13.78,-61.88 20.78,-89.34 6.77,-27.56 6.77,-55.08 6.77,-75.62 0,-20.6 0,-34.43 0,-48.11 -6.77,-20.64 -6.77,-34.42 -13.76,-41.22 0,-13.77 -6.78,-27.49 -13.78,-34.47 0,-13.75 -7,-20.6 -13.77,-27.43 -7,-13.76 -13.83,-20.58 -20.78,-20.58 -6.83,-7.01 -13.83,-13.85 -20.78,-20.72 -7.01,0 -13.77,-6.84 -20.61,-6.84 -6.95,-6.78 -13.77,-6.78 -20.77,-13.73 -20.78,0 -41.39,-6.93 -62.17,-6.93 -27.56,6.93 -48.34,6.93 -75.88,13.88 -20.8,6.78 -48.45,13.61 -69.23,20.49 -27.61,13.85 -48.34,20.67 -69.12,34.43 -27.61,13.68 -48.34,27.43 -68.99,41.24 -20.78,13.66 -41.46,27.45 -55.33,41.24 -13.78,13.81 -34.55,27.47 -41.34,41.18 -13.88,13.82 -27.78,20.78 -34.67,34.39z"/>
   <path class="fil1" d="M9596.05 1005.19l-41.5 13.72 -48.45 13.69 -41.39 20.6 -48.51 13.81 -48.21 13.66 -41.44 20.66 -48.34 13.83 -41.44 13.73c0,0 -7.01,6.84 -13.94,20.54 -6.84,6.97 -13.67,27.57 -20.62,41.31 -13.82,20.62 -20.77,48.19 -34.67,68.73 -13.72,27.56 -27.49,55.01 -41.32,82.49 -13.9,20.65 -27.56,48.19 -41.44,75.72 -13.9,27.38 -27.68,48.05 -34.7,75.48 -13.71,20.69 -20.54,34.42 -27.54,48.25 -6.95,20.57 -6.95,27.52 -6.95,34.36 -6.95,0 -13.77,-6.84 -20.61,-6.84 -13.88,0 -20.78,0 -34.66,0 -13.66,0 -27.56,0 -41.46,0 -13.77,0 -34.44,0 -48.34,0 -13.88,0 -27.54,0 -41.44,-6.95 -13.77,0 -27.61,0 -34.55,0 -13.78,0 -20.73,0 -27.61,0 -6.95,0 -13.73,0 -13.73,0l-7 27.57 -13.78 27.52 -7 27.46 -13.83 27.45 -6.89 27.47 -13.72 27.56 -13.9 27.43 -6.88 27.57c0,0 0,0 6.88,0 0,0 7.01,6.83 20.78,6.83 6.84,0 13.73,0 27.56,0 14.01,6.86 20.78,6.86 34.55,6.86 13.83,0 27.73,6.92 41.51,6.92 13.83,0 20.72,0 34.6,6.84 13.78,0 20.56,0 34.44,0 7.01,0 20.78,6.93 27.68,6.93 -6.9,6.85 -13.78,27.43 -27.68,48.12 -6.88,20.61 -27.54,48.02 -41.44,82.58 -13.77,34.36 -34.55,75.51 -55.29,109.82 -20.61,41.35 -34.37,82.54 -55.27,123.93 -20.68,34.26 -41.46,75.44 -62.16,116.8 -13.85,34.36 -34.51,68.78 -48.4,96.24 -13.83,27.47 -27.55,55.01 -34.44,68.71 -7,20.69 -13.88,27.41 -13.88,27.41 0,13.86 -6.95,20.73 -13.78,41.39 -6.9,13.71 -20.78,27.38 -27.67,41.19 -6.88,20.69 -13.83,41.27 -27.66,61.89 -6.84,13.75 -13.77,34.33 -27.56,55.11 -7,20.49 -13.9,41.15 -27.54,68.63 -6.95,20.65 -20.85,41.28 -27.79,61.85 -6.9,20.76 -13.78,41.24 -20.61,61.91 -13.9,20.67 -20.81,41.28 -27.73,61.82 0,6.92 0,6.92 0,13.86 0,6.81 -6.95,6.81 -6.95,13.63 0,6.99 0,6.99 0,13.85 0,0 0,6.91 0,13.68 -6.83,0 -6.83,6.95 -6.83,6.95 0,6.8 0,6.8 0,13.66 0,6.95 0,6.95 0,13.79l0 6.99c0,6.76 0,13.59 0,20.52 0,0 0,6.8 0,13.77 0,6.82 6.83,6.82 6.83,13.8 0,6.78 0,6.78 0,13.66 0,6.91 6.95,6.91 6.95,13.71 0,0 0,6.92 6.92,13.78 0,0 0,6.95 6.91,6.95 0,6.88 0,6.88 6.95,13.66l6.95 6.95c6.83,6.77 6.83,13.72 13.71,13.72 6.9,6.89 6.9,6.89 13.85,13.73 6.95,0 13.9,0 20.85,6.95 6.76,0 13.64,6.8 20.54,6.8 7,0 13.88,0 20.78,6.91 6.94,0 20.72,0 27.61,0 13.83,0 20.72,0 34.6,0 20.69,0 41.46,-6.91 62.12,-6.91 20.78,-6.8 41.44,-13.75 62.22,-20.58 27.67,-13.84 48.28,-20.61 69.11,-34.34 20.78,-6.88 41.39,-20.69 62.12,-41.32 20.78,-13.66 41.55,-27.46 62.11,-48.17 20.89,-20.58 41.56,-41.24 62.22,-61.75 20.78,-20.76 41.46,-48.25 62.24,-68.8 20.71,-27.53 34.49,-55.09 55.27,-82.43l6.95 -6.93 0 0 0 -6.91 6.76 0 0 -6.92 7.01 -6.84 0 0 0 -6.78 -13.77 -6.95 -20.78 -6.92 -6.95 -6.83 -20.61 -6.88 -20.78 -6.93 -13.88 -6.85 -20.68 -6.86 -20.78 -6.86 -6.88 13.73 -6.89 6.85 -6.88 13.81 -6.9 6.83 -6.88 13.87 -13.9 6.78 -6.88 13.76 -7 6.91c0,6.93 -6.78,13.73 -6.78,20.58 -6.88,6.83 -13.78,6.83 -13.78,13.69 -7,6.99 -7,6.99 -13.88,13.81l-6.89 6.97c-6.95,6.78 -6.95,6.78 -13.83,13.7 0,0 -6.95,6.8 -13.78,6.8 0,0 -6.95,6.86 -13.9,6.86 -6.88,6.95 -13.83,6.95 -20.61,6.95l0 0 0 0 0 0 0 0 0 0c-7,0 -7,0 -7,0l0 0 0 0c0,0 0,0 0,-6.95l0 0c0,0 -6.77,0 -6.77,-6.86l0 0c0,-6.8 0,-6.8 0,-6.8l0 -6.92 0 -6.78 0 -6.97c0,0 0,0 0,-6.83l0 0c0,0 0,0 0,-6.99l0 0 0 -6.86 0 0c0,-6.83 0,-6.83 0,-6.83 0,0 0,0 0,-6.85 0,-6.8 6.77,-20.64 13.76,-34.4 0,-13.73 6.78,-34.36 20.61,-55 6.95,-20.58 13.9,-41.24 27.68,-68.63 13.83,-20.78 27.61,-48.22 34.6,-75.74 13.78,-27.47 34.44,-55.08 48.34,-82.46 13.78,-27.53 27.56,-54.97 41.39,-82.49 13.83,-27.54 34.51,-55.01 48.39,-82.48 13.9,-27.6 27.61,-55.05 41.39,-82.46l13.94 -34.48 13.78 -27.49 20.66 -34.38 13.9 -34.48 20.78 -34.24 13.66 -27.58 20.78 -34.4 20.72 -34.31c0,0 0,0 0,-6.83 0,-6.97 6.95,-13.83 6.95,-20.73 6.77,-6.8 6.77,-20.54 13.72,-34.34 6.95,-6.9 6.95,-20.61 13.9,-34.33 6.87,-13.85 6.87,-27.56 13.82,-34.39 6.95,-13.75 6.95,-27.47 13.78,-34.44 6.84,-13.73 6.84,-20.57 6.84,-27.32 6.94,-13.83 6.94,-20.76 6.94,-20.76 7.01,0 20.9,0 27.66,0 13.78,-6.84 34.62,-6.84 55.33,-6.84 20.73,0 41.39,-6.92 68.99,-6.92 20.9,0 48.39,0 69.23,-6.86 27.56,0 48.34,0 75.89,-6.83 20.79,0 41.38,0 62.23,0 13.83,0 27.61,-6.87 41.39,-6.87 6.95,0 13.9,0 13.9,0l6.93 -20.69 0 -20.54 6.79 -27.56 0 -20.59 6.94 -20.59 6.84 -20.63 0 -27.46 6.95 -20.76c0,0 -6.95,0 -13.78,0 -6.94,0 -13.73,0 -27.61,0 -13.9,0 -27.67,0 -41.39,0 -20.89,0 -34.62,0 -55.33,-6.76 -20.78,0 -34.62,0 -55.29,0 -20.72,0 -34.44,0 -55.28,0 -13.95,0 -34.5,0 -48.39,0 -13.77,0 -20.66,0 -34.44,0 6.84,-13.78 13.78,-27.57 27.5,-48.14 13.89,-27.56 27.84,-48.25 41.38,-82.58 13.95,-27.49 34.79,-61.88 55.33,-96.22 13.9,-34.36 34.56,-68.8 55.34,-109.99 20.79,-34.31 34.55,-68.8 55.23,-103.19 13.94,-27.37 34.61,-61.76 48.39,-82.42 6.95,-27.56 20.83,-48.1 27.61,-61.82 6.94,-20.72 13.77,-27.56 13.77,-27.56l-6.84 6.84 -13.73 0 -6.93 6.87 -6.95 0 -13.9 6.84 -6.83 0 -6.95 0 -13.72 7.01z"/>
   <polygon class="fil1" points="8207.33,3720.67 8124.49,3720.67 8041.55,3720.67 7965.55,3720.67 7882.63,3720.67 7799.75,3720.67 7716.89,3720.67 7640.78,3720.67 7557.93,3720.67 7557.93,3755.07 7557.93,3789.48 7557.93,3823.78 7557.93,3858.18 7557.93,3892.62 7557.93,3920.04 7557.93,3954.44 7557.93,3988.88 7620.2,3988.88 7682.33,3988.88 7744.43,3988.88 7806.67,3988.88 7868.86,3988.88 7930.99,3988.88 7993.13,3988.88 8055.36,3988.88 8055.36,4002.65 8055.36,4016.37 8055.36,4030.03 8055.36,4043.8 8055.36,4057.59 8055.36,4071.29 8055.36,4085.08 8055.36,4098.91 7993.13,4098.91 7930.99,4098.91 7868.86,4098.91 7806.67,4098.91 7744.43,4098.91 7682.33,4098.91 7620.2,4098.91 7557.93,4098.91 7557.93,4140.08 7557.93,4174.4 7557.93,4208.81 7557.93,4243.17 7557.93,4277.5 7557.93,4318.81 7557.93,4353.27 7557.93,4387.56 7640.78,4387.56 7723.8,4387.56 7806.67,4387.56 7889.64,4387.56 7972.5,4387.56 8055.36,4387.56 8138.34,4387.56 8221.16,4387.56 8221.16,4401.37 8221.16,4415.09 8221.16,4428.83 8221.16,4442.54 8221.16,4456.35 8221.16,4470.1 8221.16,4483.82 8221.16,4497.63 8117.56,4497.63 8013.93,4497.63 7910.27,4497.63 7806.67,4497.63 7702.96,4497.63 7599.39,4497.63 7495.76,4497.63 7392.09,4497.63 7392.09,4387.56 7392.09,4277.5 7392.09,4167.62 7392.09,4050.79 7392.09,3940.72 7392.09,3830.66 7392.09,3720.67 7392.09,3610.71 7495.76,3610.71 7599.39,3610.71 7696.11,3610.71 7799.75,3610.71 7903.33,3610.71 8000.07,3610.71 8103.72,3610.71 8207.33,3610.71 8207.33,3624.43 8207.33,3638.27 8207.33,3651.99 8207.33,3665.82 8207.33,3679.43 8207.33,3693.22 8207.33,3706.95 "/>
   <path class="fil1" d="M9271.22 3803.17c0,0 0,-6.83 -6.88,-6.83 0,0 0,0 -6.9,0 0,0 0,0 -6.76,0l-7.01 -6.86 -6.88 0 -7.01 -6.9c0,0 -6.94,0 -6.94,-6.95l-6.84 0c0,0 -6.84,0 -6.84,-6.84 -6.95,0 -6.95,0 -13.9,0 0,0 0,0 -6.87,0l-6.95 0c0,-6.83 -6.95,-6.83 -6.95,-6.83l-6.95 0c-6.77,0 -6.77,0 -6.77,0 -6.95,0 -6.95,0 -13.77,0 0,0 0,0 0,-6.9l0 0c0,0 0,0 -6.95,0l0 0c0,-6.76 0,-6.76 -6.95,-6.76l0 0c-6.88,0 -6.88,0 -6.88,0l-7.01 0 0 0c0,0 0,0 0,-6.99l0 0 0 0 -6.88 0 0 -6.8 -6.84 0 0 0 0 0c0,0 0,0 -6.83,0l0 0c0,0 0,0 -7,0l0 0c-6.88,0 -6.88,0 -6.88,0l-6.9 0 0 0c-7,0 -7,0 -7,0l0 0c-6.9,-7.01 -6.9,-7.01 -6.9,-7.01l0 0c0,0 0,0 -6.88,0l0 -6.84 -7.01 0c0,0 0,0 -6.76,0l0 0c-6.95,0 -6.95,0 -6.95,0 0,0 0,0 -6.84,0l0 0 0 0c-7,0 -7,0 -7,0l0 0c0,0 0,0 -6.95,0l0 0 0 0 -6.95 0c0,0 0,0 -6.83,0l0 0c-6.84,0 -6.84,0 -6.84,0l-6.88 0 0 0 0 0 0 0 -7 0 0 0 0 0 0 0 -6.9 0 0 0c-7,0 -7,0 -7,0l0 0 0 0c-6.88,0 -6.88,0 -6.88,0l0 0 0 0 0 0c-6.84,0 -6.84,0 -6.84,0l0 0c-6.83,0 -6.83,0 -6.83,0l0 0c0,0 0,0 -7.01,0l0 0c0,0 0,0 -6.88,0l0 0 0 0 0 0 -6.95 0 0 0 0 0 0 0 -6.95 0c-6.88,0 -13.77,0 -20.66,0 -6.9,0 -13.78,0 -20.67,0 -7.01,0 -13.9,0 -20.89,0 -6.78,0 -13.66,0 -20.56,0 -7,0 -20.77,0 -27.72,0 -6.88,0 -13.83,0 -13.83,0 -6.84,6.84 -13.78,6.84 -20.73,6.84 -6.88,0 -13.83,0 -20.61,7.01 -7,0 -13.76,6.8 -20.78,6.8 -7,0 -13.88,6.99 -20.83,6.99 -6.89,6.76 -13.73,6.76 -20.61,13.66 0,0 -6.88,0 -13.9,6.83 -6.88,0 -13.77,6.84 -20.7,6.84 -6.9,6.95 -13.85,6.95 -20.62,13.85 -6.89,0 -6.89,6.86 -13.89,6.86 -6.95,6.83 -13.9,13.73 -20.78,13.73 0,7 -6.95,13.71 -13.66,13.71 0,6.87 -7.01,6.87 -13.9,13.83 0,0 -7,6.86 -7,13.81 -6.88,0 -13.83,6.75 -13.83,13.72 -6.84,0 -6.84,6.78 -6.84,13.62 -6.9,6.95 -6.9,6.95 -13.77,13.85 0,6.95 0,6.95 -7.01,13.72 0,6.86 0,13.71 0,13.71 -6.89,6.84 -6.89,13.85 -13.77,20.68 0,0 -6.95,6.95 -6.95,13.72 0,6.89 -6.88,13.81 -6.88,13.81 0,6.83 -6.95,13.75 -6.95,20.63 0,6.88 0,6.88 -6.84,13.77 0,6.8 0,13.72 0,20.51 0,6.86 0,13.81 0,20.64 0,0 0,6.99 0,13.78 0,6.88 0,13.7 0,20.54 0,6.95 0,6.95 0,13.83 0,6.95 0,13.73 0,20.68 6.84,6.84 6.84,6.84 6.84,13.59 0,6.99 6.95,13.85 6.95,20.8 0,6.82 6.88,13.64 6.88,20.59 0,0 6.95,6.78 6.95,13.7 6.88,6.86 6.88,13.86 13.77,13.86 0,6.86 0,13.63 0,13.63 7.01,6.95 7.01,13.77 7.01,20.65 6.87,0 6.87,6.81 13.77,6.81 0,6.9 0,13.88 6.84,13.88 0,6.85 6.95,13.72 13.83,13.72 0,6.88 7,6.88 7,13.63 6.89,6.98 13.9,6.98 13.9,13.81 6.71,6.96 13.66,6.96 13.66,13.79 6.88,6.91 13.83,6.91 20.78,13.71 7,0 7,6.82 13.89,6.82 6.77,6.95 13.72,6.95 20.62,13.78 6.93,0 13.82,6.97 20.7,6.97 7.01,0 13.9,6.89 13.9,6.89 6.88,6.71 13.72,6.71 20.61,6.71 6.95,6.97 13.83,6.97 20.83,6.97 7.01,6.9 13.78,6.9 20.78,6.9 6.78,0 13.73,6.86 20.61,6.86 6.95,0 13.9,0 20.73,0 6.95,6.84 13.83,6.84 20.78,6.84 6.89,0 13.77,0 20.77,0 6.9,0 13.78,0 20.56,0 7,0 20.89,0 27.78,0 6.88,0 13.78,0 27.56,0 6.88,0 13.83,0 20.78,0 6.88,0 6.88,0 6.88,0 0,0 0,0 7.01,0l0 0c6.83,0 6.83,0 6.83,0l6.84 0 6.88 0 0 0c7,0 7,0 7,0 6.9,0 6.9,0 6.9,0l7 0 0 0c6.88,0 6.88,0 6.88,0l6.84 0c0,0 0,0 6.83,0l0 0c6.95,0 6.95,0 6.95,0 0,0 0,0 6.95,0 0,0 0,0 7,0l6.84 0 6.95 0 6.76 0c0,0 0,0 7.01,-6.84l0 0c6.88,0 6.88,-6.86 6.88,-6.86l6.9 0c0,0 0,0 7,0l0 0c6.9,0 6.9,0 6.9,0l6.88 0c0,0 0,0 7,0l0 0c6.83,0 6.83,0 6.83,0l6.84 0c0,-6.9 0,-6.9 6.88,-6.9l0 0c7.01,-6.97 7.01,-6.97 7.01,-6.97l6.88 0c0,0 0,0 6.95,-6.71l0 0c6.95,0 6.95,-6.89 6.95,-6.89l6.83 0c0,0 0,0 6.95,0l0 0c6.77,0 6.77,0 6.77,0l6.95 0c0,0 0,0 6.95,-6.97l0 0c6.95,0 6.95,-6.84 6.95,-6.84l6.87 0c0,0 0,0 6.95,0l0 0 6.95 0 0 0c6.84,0 6.84,0 6.84,0l0 0 0 0 6.84 0c0,-6.95 0,-6.95 0,-6.95l6.94 0c0,0 0,0 0,-6.82l0 0c7.01,0 7.01,0 7.01,0l0 0c6.88,0 6.88,0 6.88,0l0 0 0 0c7.01,0 7.01,0 7.01,0 0,-6.8 0,-6.8 0,-6.8 6.76,0 6.76,0 6.76,0 0,0 0,0 6.9,0 0,-6.91 0,-6.91 0,-6.91 6.88,0 6.88,0 6.88,0l0 0 7 0 0 -6.84 0 0 0 0 6.9 0 0 0 0 -6.96 0 20.7 0 13.61 0 20.75 0 13.6 0 20.73 0 13.76 0 20.61 0 13.75 -6.9 6.83c-7,0 -7,0 -13.88,6.88l-6.9 0c-6.76,6.94 -6.76,6.94 -13.77,6.94l-6.88 6.87c-7.01,0 -7.01,0 -13.94,6.88l-6.84 0c-6.84,6.86 -6.84,6.86 -13.78,6.86l-6.95 0c-6.87,0 -6.87,0 -13.82,0 0,6.75 -6.95,6.75 -6.95,6.75 -6.95,0 -6.95,0 -13.72,0 0,0 -6.95,0 -6.95,6.97 -6.83,0 -6.83,0 -13.77,0l-6.95 0c-6.88,0 -6.88,0 -13.9,0l-6.88 6.84c-6.84,0 -6.84,0 -13.66,0l-7 6.97c-6.88,0 -13.78,0 -13.78,0 -7,0 -7,0 -13.9,0 0,0 -6.88,0 -13.9,0 0,0 -6.76,0 -13.71,0 0,0 -6.84,0 -13.83,0 -6.95,0 -6.95,6.84 -6.95,6.84 -6.95,0 -6.95,0 -13.77,0 -6.84,0 -6.84,6.91 -13.72,6.91 -7,0 -7,0 -13.9,0 -7,0 -7,0 -13.88,0 -6.84,0 -13.66,0 -13.66,0 -7.01,0 -13.9,0 -20.85,0 -6.95,0 -13.83,0 -20.72,0 -6.88,0 -13.78,0 -27.55,0 -7.01,0 -13.9,0 -27.67,0 -6.88,0 -13.78,0 -20.78,-6.91 -13.77,0 -20.72,0 -27.61,0 -13.78,0 -20.73,-6.84 -27.68,-6.84 -13.83,0 -20.61,0 -27.61,0 -6.77,-6.97 -13.78,-6.97 -20.78,-6.97 -13.83,0 -20.72,-6.84 -27.56,-6.84 -6.88,0 -13.76,0 -20.78,-6.97 -6.88,0 -20.7,0 -27.61,-6.75 -6.95,0 -13.72,0 -20.61,-6.86 -7,0 -13.94,-6.88 -20.89,-6.88 -6.88,-6.87 -13.83,-6.87 -20.54,-6.87 -7.01,-6.94 -13.9,-6.94 -20.89,-13.82 -6.88,0 -6.88,-6.83 -13.83,-6.83 -6.84,-6.88 -13.74,-6.88 -20.61,-13.75 0,-6.84 -7.01,-6.84 -13.9,-13.72 -6.88,-6.89 -6.88,-6.89 -13.83,-13.81 -6.88,-6.84 -13.83,-6.84 -13.83,-13.71 -6.84,-6.9 -13.77,-6.9 -13.77,-13.87 -6.9,0 -13.78,-6.71 -20.78,-13.6 -6.9,0 -6.9,-6.97 -13.78,-13.8 -6.76,0 -6.76,-6.95 -13.71,-13.76 -6.95,0 -13.9,-6.8 -13.9,-13.71 -6.95,-6.84 -6.95,-6.84 -13.85,-13.79 0,-6.84 -6.88,-6.84 -6.88,-13.81 -6.83,-6.75 -6.83,-6.75 -6.83,-13.63 -6.95,0 -6.95,-6.86 -6.95,-13.72 -6.95,0 -6.95,-6.98 -13.86,-13.88 0,0 0,-6.81 -6.92,-6.81 0,-6.87 -6.95,-13.7 -6.95,-20.65 0,0 -6.83,-6.77 -6.83,-13.63l0 0 0 -7 0 0 0 0 0 -6.86 0 0 0 0 0 0c0,-6.92 0,-6.92 0,-6.92l0 0 0 -6.78 0 0 0 0c0,-6.95 0,-6.95 0,-6.95 0,0 0,0 0,-6.83l0 0c-6.95,0 -6.95,0 -6.95,0l0 0 0 0c-6.85,0 -6.85,0 -6.85,0 0,0 0,0 0,-6.82l0 0c0,0 0,0 0,-6.95l0 0 0 0 0 0 0 -6.86 0 0 0 0 0 0 0 -6.99 0 0c0,-6.76 0,-6.76 0,-6.76l0 0 0 -6.84 0 0 0 0c0,-6.95 0,-6.95 0,-6.95 0,0 0,0 0,-6.78l0 0c0,-6.95 0,-6.95 0,-6.95l0 -6.88 0 0c0,-6.95 0,-6.95 0,-6.95l0 0 0 0c0,-6.84 0,-6.84 0,-6.84 0,-6.82 0,-13.7 0,-20.5 0,-13.81 0,-20.76 0,-27.62 0,-6.8 0,-13.72 0,-27.41 6.85,-6.88 6.85,-13.76 6.85,-20.69 0,-6.83 6.95,-20.64 6.95,-27.41 0,-6.95 6.83,-13.77 6.83,-20.79 0,-6.84 6.95,-13.68 6.95,-20.54 6.92,-6.77 6.92,-20.62 13.83,-27.57 0,-6.84 6.95,-13.62 6.95,-13.62 6.95,-6.97 6.95,-13.72 13.77,-20.67 6.88,-6.86 6.88,-13.82 13.78,-20.69 6.95,-6.71 6.95,-13.71 13.9,-20.61 6.95,-6.83 13.9,-13.69 13.9,-20.59 6.76,-6.95 13.64,-13.78 20.54,-20.61 7,0 13.88,-6.9 20.78,-13.66 6.94,-6.99 13.77,-13.78 13.77,-13.78 13.83,-7.01 13.83,-13.86 27.66,-20.72 6.89,0 13.9,-6.85 20.77,-13.67 6.9,-6.91 13.74,-6.91 20.69,-13.76 6.88,-6.95 20.77,-6.95 27.78,-13.78 6.71,-6.78 13.66,-6.78 20.54,-13.78 13.9,-6.83 20.89,-6.83 27.79,-13.73 6.77,-6.82 13.72,-6.82 27.55,-13.76 6.89,0 13.77,-6.89 20.79,-6.89 13.76,-6.88 20.6,-6.88 27.49,-6.88 13.83,0 20.83,-6.84 27.84,-6.84 13.76,0 20.54,0 27.49,-6.83 13.83,0 20.78,0 34.56,0 6.88,0 13.83,0 27.61,-6.9 7,0 20.78,0 27.56,0 13.88,0 20.89,0 34.66,0 6.9,0 20.68,0 27.56,0 6.95,0 6.95,0 13.9,0l6.88 0c7.01,0 7.01,0 13.84,0l6.84 0c6.88,0 6.88,0 13.88,0l6.9 0c7,0 7,0 13.88,0l6.84 0c6.83,0 6.83,0 13.77,0 0,6.9 0,6.9 6.95,6.9l7 0c6.84,0 13.78,0 13.78,0 6.76,0 6.76,6.83 13.77,6.83 6.88,0 6.88,0 13.78,0 0,0 7,0 13.9,0l6.88 0c7,0 7,0 13.82,0 0,6.84 0,6.84 6.84,6.84l6.88 0 7.01 6.88c6.88,0 6.88,0 13.83,0l6.95 0c6.83,6.89 6.83,6.89 13.77,6.89 6.77,0 6.77,0 13.72,6.95 6.95,0 6.95,0 13.9,0 0,6.82 6.87,6.82 6.87,6.82 6.95,0 13.9,6.9 13.9,6.9 6.84,0 6.84,0 13.67,0 6.94,6.83 6.94,6.83 13.94,6.83 6.88,0 6.88,0 13.9,0 0,0 6.76,0 13.66,7.01l6.88 0 0 13.61 0 20.7 0 13.67 0 20.72 0 13.78 0 20.49 0 13.78 0 20.59z"/>
   <polygon class="fil1" points="9768.72,4497.63 9748,4497.63 9720.22,4497.63 9699.66,4497.63 9678.83,4497.63 9658.11,4497.63 9630.49,4497.63 9609.77,4497.63 9589.11,4497.63 9589.11,4387.56 9589.11,4277.5 9589.11,4167.62 9589.11,4050.79 9589.11,3940.72 9589.11,3830.66 9589.11,3720.67 9589.11,3610.71 9609.77,3610.71 9630.49,3610.71 9658.11,3610.71 9678.83,3610.71 9699.66,3610.71 9720.22,3610.71 9748,3610.71 9768.72,3610.71 9768.72,3720.67 9768.72,3830.66 9768.72,3940.72 9768.72,4050.79 9768.72,4167.62 9768.72,4277.5 9768.72,4387.56 "/>
   <g>
    <path class="fil1" d="M10908.72 3775.63c0,-6.84 0,-13.66 -7.01,-20.56 0,0 0,-6.76 -7,-13.75 0,0 0,-6.8 -6.78,-6.8 0,-7.01 -7,-7.01 -7,-13.86 -6.84,0 -6.84,-6.86 -6.84,-6.86 -6.95,-6.85 -6.95,-6.85 -13.77,-6.85 0,-6.82 -7.01,-6.82 -7.01,-13.73 -6.95,0 -6.95,0 -13.96,0 0,-6.84 -6.76,-6.84 -6.76,-13.79 -6.84,0 -13.78,-6.84 -13.78,-6.84 -6.83,-6.78 -13.82,-6.78 -13.82,-13.78 -7.01,0 -13.95,-6.83 -13.95,-6.83 -6.83,-6.9 -13.66,-6.9 -20.61,-6.9 0,-6.82 -6.83,-6.82 -13.83,-13.76 -7.01,0 -13.77,0 -20.72,-6.89 -6.84,0 -13.66,0 -20.61,0 -7,-6.88 -7,-6.88 -14,-6.88 -6.78,0 -13.77,0 -20.61,0 -6.83,-6.84 -6.83,-6.84 -13.71,-6.84 -7.01,0 -14.02,0 -20.8,0 -7,0 -13.88,0 -20.83,0 -6.83,0 -20.72,0 -27.61,0 -6.95,0 -13.83,0 -20.78,0 -6.84,0 -13.73,0 -27.56,0l0 0 -7 0 -6.9 0 -6.88 0 0 0 -6.88 0 -6.78 0 0 109.96 6.78 0 6.88 0 0 0 6.88 0 6.9 0 7 0 0 0c7,0 7,0 13.83,0 0,0 6.89,0 13.73,0l6.95 0c6.88,0 6.88,0 13.83,6.84 6.88,0 6.88,0 13.77,0l7.01 0c6.83,0 6.83,0 6.83,7.01 6.95,0 6.95,0 6.95,0 6.88,0 6.88,0 13.88,0l6.78 6.8c7.01,0 7.01,0 14.02,0 0,0 6.88,0 6.88,6.99l6.83 0c6.84,0 6.84,0 6.84,0 7,6.76 7,6.76 7,6.76 6.78,0 6.78,0 6.78,6.9 7.01,0 7.01,0 7.01,0 0,6.83 0,6.83 7,6.83l0 6.84c6.95,0 6.95,0 6.95,6.95l6.83 0c0,6.9 0,6.9 6.84,6.9l0 6.86c6.95,0 6.95,0 6.95,6.83l0 0c0,6.9 0,6.9 6.76,6.9 0,0 0,0 0,7 0,0 0,0 0,6.71 0,0 0,0 7.01,0 0,6.87 0,6.87 0,6.87l0 6.96c0,0 0,0 0,6.86l0 0 0 0 0 0 0 6.95 0 0 0 0 0 0 0 6.75c0,0 0,0 0,6.97l0 6.78c0,6.84 0,6.84 0,6.84 -7.01,6.95 -7.01,6.95 -7.01,6.95 0,6.9 0,6.9 0,13.85 0,0 0,0 0,6.77 -6.76,0 -6.76,6.86 -6.76,6.86l0 6.84c0,6.84 0,6.84 -6.95,6.84l0 7.01c-6.84,0 -6.84,0 -6.84,6.83l-6.83 0c0,6.95 -6.95,6.95 -6.95,6.95l-7 6.77c-7.01,0 -7.01,0 -7.01,6.89 -6.78,0 -6.78,0 -13.77,0 0,6.92 0,6.92 -6.84,6.92 0,0 0,6.83 -6.83,6.83 0,0 0,0 -6.88,6.92l-7.01 0 -7.01 6.88c-6.78,0 -6.78,0 -13.77,0l-6.88 0c-6.95,0 -6.95,0 -13.77,0 0,0 0,0 -7.01,6.88 0,0 0,0 -6.89,0 0,0 0,0 -6.88,0l-6.95 0c-6.88,0 -6.88,0 -13.83,0 0,0 -6.84,0 -13.73,0 0,0 -6.84,0 -13.83,0 0,0 -7,0 -13.9,-6.88l0 0 -6.88 0 0 0 -6.88 0 0 0 -6.78 0 0 123.76 6.78 0 0 0 0 0 0 0c13.76,0 20.67,0 27.66,0 7,0 13.83,0 20.72,0 13.78,0 20.67,0 27.61,0 6.88,0 13.77,0 20.78,0 6.83,0 13.77,0 20.66,0 7,0 13.77,0 20.78,0 7.01,-6.95 13.9,-6.95 20.72,-6.95 6.84,0 13.83,0 20.61,-6.78 7.01,0 14,0 20.95,0 6.83,-6.95 13.66,-6.95 20.61,-6.95 6.76,0 13.77,-6.88 13.77,-6.88 7.01,0 13.83,-6.95 20.78,-6.95 0,0 6.84,0 13.66,-6.84 6.95,0 6.95,-6.82 13.95,-6.82 0,0 7,-6.88 13.82,-6.88 0,-6.8 6.95,-6.8 6.95,-13.78 6.84,0 13.59,-6.83 13.59,-6.83 7.01,-6.95 13.96,-6.95 13.96,-13.81 7.01,0 7.01,-6.8 13.83,-6.8 6.95,-6.92 6.95,-6.92 13.78,-13.72l7 -6.89c0,-6.88 6.78,-6.88 6.78,-13.76 7,0 7,-6.92 7,-6.92 7.01,-6.83 7.01,-6.83 7.01,-13.75l6.78 -6.89c0,-6.77 0,-6.77 7,-13.72 0,0 0,-6.83 0,-13.84 0,0 6.77,-6.84 6.77,-13.68l0 -6.86c0,-6.77 7.01,-13.72 7.01,-13.72 0,-6.9 0,-6.9 0,-13.85l0 -6.84c0,-6.78 0,-13.75 0,-20.5 0,0 0,-6.95 0,-13.81l-7.01 -6.96c0,-6.87 0,-13.59 0,-13.59 0,-7 -6.77,-7 -6.77,-13.9l0 -6.83c-7,-6.86 -7,-6.86 -7,-13.76l-6.78 -6.95 0 0zm-393.77 -164.92l0 0 -6.95 0 -48.39 0 -48.34 0 -48.34 0 -55.33 0 -48.34 0 -48.32 0 -48.39 0 -48.28 0 0 109.96 0 109.99 0 110.06 0 110.07 0 116.83 0 109.87 0 110.06 0 110.07 20.54 0 20.79 0 20.71 0 20.66 0 20.8 0 20.59 0 13.94 0 20.73 0 0 -48.15 0 -48.11 0 -48.1 0 -48.17 0 -48.1 0 -48.19 0 -48.14 0 -48.04 34.55 0 27.56 0 27.78 0 27.56 0 34.56 0 27.56 0 27.65 0 27.73 0 6.95 0 0 0 0 0 0 0 0 0 0 -123.76 0 0 0 0 -6.95 0 -27.73 0 -27.65 0 -27.56 0 -34.56 0 -27.56 0 -27.78 0 -27.56 0 -34.55 0 0 -34.44 0 -34.39 0 -27.43 0 -34.44 0 -34.39 0 -34.3 0 -34.41 0 -34.4 34.55 0 27.56 0 27.78 0 27.56 0 34.56 0 27.56 0 27.65 0 27.73 0 6.95 0 0 0 0 -109.96z"/>
   </g>
   <polygon class="fil1" points="11965.6,3720.67 11889.66,3720.67 11813.61,3720.67 11730.83,3720.67 11654.72,3720.67 11571.95,3720.67 11495.84,3720.67 11412.94,3720.67 11336.94,3720.67 11336.94,3755.07 11336.94,3789.48 11336.94,3823.78 11336.94,3858.18 11336.94,3892.62 11336.94,3920.04 11336.94,3954.44 11336.94,3988.88 11399.05,3988.88 11454.28,3988.88 11516.62,3988.88 11578.73,3988.88 11634.06,3988.88 11696.23,3988.88 11758.39,3988.88 11820.56,3988.88 11820.56,4002.65 11820.56,4016.37 11820.56,4030.03 11820.56,4043.8 11820.56,4057.59 11820.56,4071.29 11820.56,4085.08 11820.56,4098.91 11758.39,4098.91 11696.23,4098.91 11634.06,4098.91 11578.73,4098.91 11516.62,4098.91 11454.28,4098.91 11399.05,4098.91 11336.94,4098.91 11336.94,4140.08 11336.94,4174.4 11336.94,4208.81 11336.94,4243.17 11336.94,4277.5 11336.94,4318.81 11336.94,4353.27 11336.94,4387.56 11419.83,4387.56 11502.6,4387.56 11585.72,4387.56 11668.5,4387.56 11751.37,4387.56 11834.32,4387.56 11910.27,4387.56 11993.39,4387.56 11993.39,4401.37 11993.39,4415.09 11993.39,4428.83 11993.39,4442.54 11993.39,4456.35 11993.39,4470.1 11993.39,4483.82 11993.39,4497.63 11889.66,4497.63 11786,4497.63 11682.45,4497.63 11578.73,4497.63 11475.23,4497.63 11364.56,4497.63 11261.05,4497.63 11157.28,4497.63 11157.28,4387.56 11157.28,4277.5 11157.28,4167.62 11157.28,4050.79 11157.28,3940.72 11157.28,3830.66 11157.28,3720.67 11157.28,3610.71 11261.05,3610.71 11357.72,3610.71 11461.27,3610.71 11564.94,3610.71 11661.67,3610.71 11765.16,3610.71 11868.88,3610.71 11965.6,3610.71 11965.6,3624.43 11965.6,3638.27 11965.6,3651.99 11965.6,3665.82 11965.6,3679.43 11965.6,3693.22 11965.6,3706.95 "/>
   <g>
    <path class="fil1" d="M6963.83 4181.32l0 0c-6.86,0 -6.86,0 -6.86,-6.92 -6.91,0 -6.91,0 -13.9,-6.78 0,0 -6.94,0 -6.94,-6.95 -6.92,0 -6.92,-6.83 -13.76,-6.83 0,-6.82 -6.93,-6.82 -6.93,-13.76 -6.84,0 -13.78,0 -13.78,-6.86 -6.97,0 -13.85,0 -13.85,-6.99 20.8,0 34.56,-6.76 55.27,-13.59 20.76,-6.95 34.51,-20.68 55.26,-27.56 13.86,-6.95 27.67,-20.61 41.42,-27.49 13.92,-13.78 27.73,-20.61 34.61,-34.42 13.75,-13.72 20.76,-27.41 34.59,-41.17 6.87,-13.75 13.71,-20.67 20.62,-41.28 6.94,-13.84 6.94,-27.52 13.83,-41.15 0,-13.85 0,-27.64 0,-41.39 0,-20.56 0,-34.39 -6.89,-55 0,-13.69 -6.94,-34.37 -13.85,-48.1 -13.71,-20.54 -20.63,-34.4 -34.55,-48.12 -13.75,-13.73 -27.53,-27.52 -41.43,-41.13 -13.84,-13.83 -27.58,-27.55 -48.35,-34.5 -20.75,-13.77 -34.5,-20.61 -55.26,-27.44 -20.7,-6.9 -41.42,-6.9 -62.2,-13.78 -20.63,0 -41.44,0 -62.16,6.88 -6.84,-6.88 -6.84,-6.88 -13.78,-6.88 -6.93,0 -6.93,0 -13.84,0 -6.95,0 -6.95,0 -13.87,0 -6.82,0 -13.77,0 -13.77,0 -6.84,0 -13.81,0 -20.69,0 0,0 -6.95,0 -13.83,0 0,0 -6.93,6.88 -13.88,6.88l-6.8 0 -6.92 0 0 137.54 0 0c0,0 0,0 6.92,0 0,0 6.8,0 13.75,0 0,0 6.93,0 13.81,0 0,0 6.95,0 13.83,0l6.98 0c6.84,0 6.84,0 13.79,0 6.82,0 6.82,0 13.74,0 0,6.8 6.95,6.8 6.95,6.8 6.91,0 6.91,0 13.84,6.99 20.61,0 48.37,0 62.15,6.76 20.72,6.9 34.57,20.56 48.36,27.51 13.77,13.76 20.69,20.59 27.63,34.49 6.99,13.59 13.9,27.41 13.9,41.11 0,13.75 0,27.54 -6.91,34.44 0,13.72 -13.93,27.43 -20.85,41.28 -6.84,6.83 -20.61,20.54 -34.53,27.44 -13.81,6.92 -34.44,13.75 -48.39,13.75l-6.86 0 -6.95 0c-6.95,0 -13.77,0 -20.61,0 0,0 -6.95,0 -13.88,0 -6.91,0 -13.86,0 -27.6,0 -6.96,0 -13.79,0 -20.77,0 -6.88,0 -13.83,0 -20.71,0 -6.93,0 -13.88,0 -20.68,0 -6.92,0 -6.92,0 -6.92,0l0 0 0 151.16c0,0 0,0 6.92,0 0,6.99 0,6.99 0,6.99 6.8,0 6.8,6.86 6.8,6.86 0,0 6.95,0 6.95,6.95 0,0 0,0 6.93,0 0,6.82 0,6.82 0,6.82 6.88,0 6.88,6.83 6.88,6.83 0,0 6.95,0 6.95,6.95 0,0 0,0 6.88,0 0,6.78 6.98,13.7 13.81,20.56 6.96,7 13.77,13.86 13.77,13.86 6.92,6.77 13.87,13.72 20.78,20.54 6.93,6.87 13.88,13.68 13.88,27.56 6.84,6.85 13.66,13.72 20.61,20.6 0,6.75 6.95,13.73 13.81,20.56 7,6.96 7,13.79 13.94,20.7 0,6.8 6.84,13.61 13.8,20.56 0,6.84 0,13.8 0,27.41 6.83,6.97 6.83,13.87 6.83,27.58 6.93,6.92 6.93,13.81 6.93,27.53 6.88,6.86 6.88,20.57 6.88,27.45 6.97,13.81 6.97,20.69 6.97,27.56 0,6.75 6.95,13.72 6.95,20.56 0,6.97 0,13.8 0,13.8 0,6.91 0,6.91 0,6.91l27.53 0 27.7 0 27.61 0 20.74 0 27.56 0 27.73 0 27.64 0 20.7 0c6.84,-6.91 6.84,-13.75 6.84,-20.71 0,-6.84 -6.84,-13.81 -6.84,-20.56 0,-13.75 -6.87,-20.62 -6.87,-34.44 -6.92,-6.83 -6.92,-20.57 -13.83,-27.41 0,-13.77 -7.01,-20.69 -13.94,-34.4 0,-6.9 -6.83,-13.87 -6.83,-20.58 -6.88,-13.86 -6.88,-13.86 -6.88,-20.69 0,-6.95 -6.9,-13.76 -6.9,-13.76l0 0c0,-6.8 -6.91,-6.8 -6.91,-13.71 -6.99,-6.84 -6.99,-13.79 -13.92,-13.79 -6.91,-6.84 -6.91,-13.81 -13.75,-20.56 -6.9,-13.75 -13.81,-20.6 -13.81,-27.58 -6.88,-6.9 -13.86,-13.71 -20.74,-20.58 0,-6.83 -6.93,-13.77 -13.87,-20.54 0,-6.86 -6.86,-13.86 -13.75,-20.72l0 0zm-262.51 -584.34l-48.35 0 -55.26 0 -55.31 0 -48.39 0 -55.29 0 -55.27 0 -48.34 0 -55.3 0 0 109.97 0 116.83 0 110.11 0 109.91 0 116.87 0 110.07 0 116.81 0 110.07 20.83 0 20.61 0 20.74 0 20.76 0 20.69 0 20.83 0 20.6 0 20.77 0 0 -48.15 0 -48.11 0 -48.1 0 -48.17 0 -48.1 0 -48.19 0 -48.14 0 -48.04 27.58 0 20.78 0 27.56 0 27.78 0 20.69 0 27.67 0 27.49 0 27.77 0 0 0c6.93,0 6.93,0 6.93,0l6.82 0c0,6.84 6.86,6.84 6.86,6.84l6.93 0 6.91 0c0,0 6.99,0 6.99,6.76l6.91 0 0 -151.16c0,0 0,0 -6.91,0l0 0 0 0 0 0 0 0 0 0 -34.51 0 -27.78 0 -34.41 0 -27.67 0 -34.55 0 -27.53 0 -34.72 0 -27.58 0 0 -27.41 0 -34.47 0 -27.48 0 -34.29 0 -27.64 0 -27.44 0 -34.37 0 -27.44 27.58 0 34.72 0 27.53 0 34.55 0 27.67 0 34.41 0 27.78 0 34.51 0 0 0 0 0 0 0 0 0 0 0c6.91,0 6.91,0 6.91,0l0 -137.54z"/>
   </g>
   <path class="fil1" d="M5968.9 4153.85c-214.04,61.91 -407.63,96.3 -587.13,110.02 -179.7,13.63 -338.52,13.63 -490.5,0 -145.19,-6.86 -283.27,-34.4 -421.39,-61.82 -131.42,-27.64 -255.63,-61.96 -387,-89.41 -124.28,-34.51 -248.69,-61.85 -379.86,-75.66 -131.31,-20.61 -262.63,-34.33 -407.65,-27.53 -145.07,6.92 -304,34.36 -469.87,75.63 -172.69,48.14 -359.21,116.96 -566.52,213.19 186.56,-68.81 352.37,-116.94 504.3,-144.42 152.01,-20.63 290.34,-34.37 421.48,-27.61 131.3,6.99 255.62,20.8 379.99,41.39 117.46,27.56 241.85,54.97 366.08,82.52 124.48,27.35 248.8,54.96 387.04,75.48 138.07,20.75 283.18,34.36 449.05,34.36 158.85,0 338.44,-13.6 538.71,-41.17 200.43,-34.34 414.58,-89.35 663.25,-164.96z"/>
   <path class="fil1" d="M5968.9 4153.85c-214.04,61.91 -407.63,96.3 -587.13,110.02 -179.7,13.63 -338.52,13.63 -490.5,0 -145.19,-6.86 -283.27,-34.4 -421.39,-61.82 -131.42,-27.64 -255.63,-61.96 -387,-89.41 -124.28,-34.51 -248.69,-61.85 -379.86,-75.66 -131.31,-20.61 -262.63,-34.33 -407.65,-27.53 -145.07,6.92 -304,34.36 -469.87,75.63 -172.69,48.14 -359.21,116.96 -566.52,213.19 186.56,-68.81 352.37,-116.94 504.3,-144.42 152.01,-20.63 290.34,-34.37 421.48,-27.61 131.3,6.99 255.62,20.8 379.99,41.39 117.46,27.56 241.85,54.97 366.08,82.52 124.48,27.35 248.8,54.96 387.04,75.48 138.07,20.75 283.18,34.36 449.05,34.36 158.85,0 338.44,-13.6 538.71,-41.17 200.43,-34.34 414.58,-89.35 663.25,-164.96z"/>
   <path class="fil1" d="M12179.83 4133.22c214.23,54.97 407.68,89.37 580.33,109.95 179.67,13.83 338.55,13.83 490.56,0 151.9,-13.71 290,-34.36 421.28,-61.85 131.32,-27.47 255.61,-61.85 386.89,-89.36 124.5,-34.37 255.78,-61.93 380.06,-82.51 131.32,-13.69 269.37,-27.45 414.43,-20.57 145.13,6.88 304.01,27.49 469.83,75.59 172.79,48.17 359.29,109.93 559.51,213.02 -179.57,-68.68 -345.28,-116.82 -497.34,-137.41 -151.88,-27.44 -290.22,-34.39 -421.5,-27.44 -131.04,0 -255.56,20.58 -379.89,41.21 -117.5,20.55 -241.76,48.2 -366.05,75.61 -124.5,27.54 -248.78,55.01 -387.13,75.64 -138.04,20.52 -290.1,34.31 -448.94,34.31 -165.89,0 -338.51,-13.78 -538.83,-41.14 -200.33,-34.4 -414.55,-89.45 -663.23,-165.05z"/>
   <path class="fil1" d="M12179.83 4133.22c214.23,54.97 407.68,89.37 580.33,109.95 179.67,13.83 338.55,13.83 490.56,0 151.9,-13.71 290,-34.36 421.28,-61.85 131.32,-27.47 255.61,-61.85 386.89,-89.36 124.5,-34.37 255.78,-61.93 380.06,-82.51 131.32,-13.69 269.37,-27.45 414.43,-20.57 145.13,6.88 304.01,27.49 469.83,75.59 172.79,48.17 359.29,109.93 559.51,213.02 -179.57,-68.68 -345.28,-116.82 -497.34,-137.41 -151.88,-27.44 -290.22,-34.39 -421.5,-27.44 -131.04,0 -255.56,20.58 -379.89,41.21 -117.5,20.55 -241.76,48.2 -366.05,75.61 -124.5,27.54 -248.78,55.01 -387.13,75.64 -138.04,20.52 -290.1,34.31 -448.94,34.31 -165.89,0 -338.51,-13.78 -538.83,-41.14 -200.33,-34.4 -414.55,-89.45 -663.23,-165.05z"/>
  </g>
  <path class="fil3" d="M574.05 6216.01l549.3 0 0 903.15 173.55 0 0 -903.15 549.3 0 0 -148.28 -1272.16 0 0 148.28zm2352.23 903.15l187.03 0 -743.08 -1083.45 -13.47 0 -727.91 1083.45 178.6 0 136.49 -203.88 842.48 0 139.86 203.88zm-566.16 -823.96l328.57 478.54 -650.4 0 321.83 -478.54zm1882.12 512.23c0,114.58 -128.06,193.78 -441.47,193.78 -299.93,0 -478.53,-77.51 -577.95,-143.23l-87.62 126.38c144.91,94.35 340.37,155.02 665.56,155.02 342.05,0 618.39,-97.73 618.39,-345.43 0,-219.05 -181.98,-272.96 -460,-286.44l-331.95 -15.16c-193.77,-8.42 -284.76,-38.75 -284.76,-136.49 0,-107.83 129.75,-168.5 404.4,-168.5 281.39,0 422.93,53.93 537.51,116.26l70.76 -131.43c-133.11,-72.45 -298.24,-123 -608.27,-123 -358.9,0 -576.26,112.9 -576.26,320.15 0,190.4 156.7,257.81 429.67,272.97l331.94 15.16c215.68,10.11 310.04,38.75 310.04,149.96l0 0zm239.27 -591.43l549.3 0 0 903.15 173.55 0 0 -903.15 549.3 0 0 -148.28 -1272.16 0 0 148.28zm1626 291.5l0 -289.82 901.47 0 0 -149.96 -1075.02 0 0 1051.43 1118.83 0 0 -149.97 -945.28 0 0 -318.45 650.4 0 0 -143.23 -650.4 0zm1477.73 -291.5l549.3 0 0 903.15 173.55 0 0 -903.15 549.3 0 0 -148.28 -1272.16 0 0 148.28zm1452.44 903.15l173.55 0 0 -460 918.31 0 0 460 173.55 0 0 -1051.43 -173.55 0 0 441.46 -918.31 0 0 -441.46 -173.55 0 0 1051.43zm1718.68 -611.65l0 -289.82 901.47 0 0 -149.96 -1075.02 0 0 1051.43 1118.83 0 0 -149.97 -945.28 0 0 -318.45 650.4 0 0 -143.23 -650.4 0zm1809.67 461.68l0 -901.46 -173.55 0 0 1051.43 1078.39 0 0 -149.97 -904.83 0zm2423 -375.75c0,-363.96 -333.63,-544.25 -732.96,-544.25 -401.03,0 -739.71,183.66 -739.71,547.62 0,370.7 335.31,542.57 739.71,542.57 404.39,0 732.96,-175.24 732.96,-545.93zm-1290.69 0c0,-266.23 215.68,-407.77 554.36,-407.77 338.69,0 554.36,144.91 554.36,411.13 0,272.97 -215.67,406.08 -554.36,406.08 -338.68,0 -554.36,-136.49 -554.36,-409.45zm2006.81 289.82l-549.3 -815.53 -203.88 0 743.08 1083.44 13.47 0 727.91 -1083.44 -187.03 0 -544.25 815.53zm1048.06 -375.75l0 -289.82 901.47 0 0 -149.96 -1075.02 0 0 1051.43 1118.83 0 0 -149.97 -945.28 0 0 -318.45 650.4 0 0 -143.23 -650.4 0z"/>
  <g>
   <g>
    <path class="fil0" d="M18208.13 6337.65l0 0c167.38,0 306.81,-138.75 306.81,-305.26 0,-171.18 -139.43,-305.35 -306.81,-305.35l0 0 0 32.4 0 0c153.37,0 274.29,120.29 274.29,272.95 0,147.97 -120.92,272.87 -274.29,272.87l0 0 0 32.39 0 0zm-306.85 -305.26c0,166.5 139.54,305.26 306.85,305.26l0 -32.39c-153.33,0 -274.3,-124.9 -274.3,-272.87 0,-152.66 120.96,-272.95 274.3,-272.95l0 -32.4c-167.32,0 -306.85,134.17 -306.85,305.35z"/>
   </g>
   <g>
    <path class="fil1" d="M18212.75 5861.21l23.33 0c55.78,0 116.18,18.52 116.18,92.57 0,55.44 -27.88,73.93 -51.14,87.84 18.58,4.61 41.83,13.92 41.83,64.7l4.59 64.81c0,18.54 0,23.17 18.69,32.41l0 9.21 -60.52 0c-4.59,-23.08 -9.15,-74.01 -9.15,-87.85 0,-27.75 -4.71,-64.79 -60.49,-64.79l-23.33 0 0 -36.96 18.78 0c32.52,0 69.59,-9.28 69.59,-64.81 0,-50.84 -37.07,-55.54 -60.48,-55.54l-27.9 0 0 -41.59 0 0zm-92.83 351.53l-46.66 0 0 -351.53 139.49 0 0 41.59 -92.83 0 0 120.35 92.83 0 0 36.96 -92.83 0 0 152.63z"/>
   </g>
  </g>
 </g>
</svg>
